<?xml version="1.0" encoding="UTF-8" standalone="no"?>
<!DOCTYPE svg PUBLIC "-//W3C//DTD SVG 1.1//EN" "http://www.w3.org/Graphics/SVG/1.1/DTD/svg11.dtd">
<svg width="100%" height="100%" viewBox="0 0 233 335" version="1.1" xmlns="http://www.w3.org/2000/svg" xmlns:xlink="http://www.w3.org/1999/xlink" xml:space="preserve" xmlns:serif="http://www.serif.com/" style="fill-rule:evenodd;clip-rule:evenodd;stroke-linejoin:round;stroke-miterlimit:2;">
    <g transform="matrix(1,0,0,1,-733.408,-411.996)">
        <path d="M865.432,527.583C863.716,526.32 862.507,524.901 862.629,522.519C862.708,521.013 861.348,520.058 860.306,519.12C859.644,518.524 859.1,519.073 858.873,519.669C857.89,522.25 857.247,524.969 857.578,527.693C857.692,528.627 857.79,530.121 857.79,530.121C857.79,530.121 860.362,532.863 861.938,533.707C862.172,533.832 862.402,533.971 862.615,534.129C863.592,534.855 864.532,536.021 865.881,535.2C867.233,534.378 867.291,532.845 867.374,531.428C867.559,529.718 866.711,528.526 865.432,527.583ZM903.417,604.811C901.93,607.096 900.055,608.903 897.814,610.445C896.128,611.605 894.787,613.139 893.927,615.1C893.326,616.473 892.528,617.822 891.557,618.959C886.062,625.399 881.83,632.724 876.92,639.574C875.415,641.675 874.999,644.173 874.559,646.584C874.274,648.149 874.2,649.956 875.632,651.34C876.361,652.042 876.415,653.116 876.44,654.103C876.497,656.235 876.894,658.35 876.637,660.499C876.509,661.568 876.626,662.685 877.338,663.556C878.218,664.632 878.31,665.835 878.081,667.09C877.551,669.966 876.451,672.819 877.999,675.728C878.182,676.076 878.009,676.607 878.021,677.051C878.154,682.031 877.754,687.014 878.511,691.992C878.797,693.868 878.594,695.842 877.817,697.744C876.614,700.682 878.257,703.837 881.333,704.901C882.358,705.254 883.414,705.59 883.957,706.602C885.554,709.579 887.25,712.541 887.288,716.062C887.305,717.775 887.571,719.412 888.148,721.033C888.756,722.735 889.236,724.69 888.331,726.241C888.033,726.751 886.666,726.442 886.666,726.442C886.666,726.442 887.615,731.193 887.965,732.947C888.123,733.733 888.395,734.499 888.499,735.29C888.791,737.529 887.949,738.933 885.758,739.309C882.937,739.793 880.151,740.174 877.288,740.175C872.121,740.177 866.95,740.172 861.788,740.353C855.271,740.582 848.792,740.168 842.311,739.616C839.906,739.409 837.538,738.974 835.268,738.137C833.153,737.357 832.241,735.607 832.83,733.478C833.64,730.553 835.104,728.266 838.48,727.893C839.451,727.786 840.405,727.531 841.366,727.34C844.969,726.624 848.412,725.38 851.713,723.826C853.281,723.089 855.043,722.02 855.019,719.993C854.992,717.572 854.444,715.027 852.398,713.527C849.942,711.723 849.25,708.956 848.416,706.499C847.601,704.107 847.06,701.545 846.274,699.093C842.333,686.798 839.081,674.309 835.751,661.842C835.149,659.586 834.079,657.493 832.55,655.764C830.718,653.693 830.274,651.365 830.715,648.811C831.293,645.46 831.838,642.139 830.748,638.787C830.496,638.013 830.664,637.206 830.719,636.404C830.964,632.841 833.23,629.593 832.354,625.858C832.319,625.702 832.423,625.512 832.471,625.34C833.674,621.04 833.629,616.731 832.639,612.398C832.243,610.66 832.305,608.97 833.983,607.872C835.623,606.798 837.435,607.024 839.179,608.353C840.823,609.608 842.142,611.17 843.454,612.75C843.858,613.24 844.789,614.144 844.789,614.144C844.789,614.144 845.164,613.054 845.35,612.448C846.844,607.599 848.666,602.869 850.442,598.121C850.968,596.716 850.987,595.107 851.595,593.751C853.13,590.333 854.364,586.806 855.71,583.321C856.383,581.577 856.97,579.768 858.126,578.275C860.858,574.745 862.966,570.809 865.49,567.146C866.348,565.9 867.172,564.628 868.015,563.371C868.515,562.626 868.432,562.079 867.544,561.7C866.174,561.114 865.048,560.231 864.8,558.668C864.594,557.372 864.174,556.778 862.697,557.173C861.252,557.558 860.543,556.717 860.516,555.271C860.508,554.833 860.561,554.371 860.219,554.009C857.093,554.235 857.073,554.219 856,551.046C855.971,550.961 855.946,550.875 855.929,550.788C855.717,549.613 855.011,549.083 853.841,549.293C851.179,549.773 849.002,547.842 846.43,547.828C845.792,547.825 845.421,547.153 845.059,546.64C844.12,545.31 842.996,544.22 841.468,543.544C840.187,542.977 839.179,541.924 838.895,540.618C838.503,538.815 837.315,538.074 835.887,537.224C832.739,535.351 831.839,532.884 832.63,529.276C832.839,528.322 833.094,527.356 833.123,526.388C833.132,526.039 833.526,524.706 833.526,524.706L831.523,522.764C831.523,522.764 830.342,523.045 830.079,523.12C828.712,523.503 826.08,522.292 824.267,520.628C819.147,515.93 813.501,511.87 808.103,507.511C804.027,504.219 799.409,501.601 795.292,498.352C789.769,493.994 784.05,489.903 778.355,485.796C770.563,480.179 762.497,474.935 754.278,469.951C748.341,466.349 742.797,462.14 736.729,458.75C736.195,458.451 735.739,458 735.274,457.588C733.579,456.082 733.05,454.248 733.64,452.04C734.39,449.235 735.827,446.773 737.519,444.481C739.1,442.341 740.445,442.039 742.878,443.143C751.321,446.972 759.474,451.393 767.376,456.201C774.209,460.36 780.7,465.072 787.088,469.932C796.874,477.377 806.393,485.125 815.656,493.201C818.473,495.657 821.135,498.283 824.179,500.489C827.653,503.005 830.694,506.015 833.493,509.267C834.189,510.077 834.935,510.815 834.814,512.041C834.684,513.374 834.695,514.88 834.695,514.88C834.695,514.88 836.567,516.396 837.716,517.183C838.224,517.532 839.241,518.324 839.241,518.324C839.241,518.324 840.088,517.248 840.55,516.526C841.886,514.435 841.792,510.745 840.292,508.734C839.871,508.165 839.259,507.621 839.117,506.982C838.432,503.912 836.375,501.618 834.829,499.035C833.688,497.13 832.168,495.404 831.571,493.242C831.194,491.882 830.645,490.777 829.555,489.908C825.205,486.437 825.987,478.147 830.3,475.038C832.331,473.576 833.547,471.525 834.236,469.154C834.786,467.256 835.675,465.512 836.605,463.789C837.292,462.517 838.207,461.445 839.579,460.826C841.784,459.832 843.363,458.185 844.38,456.01C844.98,454.73 845.935,453.841 847.212,453.312C848.2,452.904 850.615,451.958 850.615,451.958C850.615,451.958 850.295,450.625 850.127,449.653C850.008,448.958 850.728,448.412 851.345,448.006C851.865,447.665 852.179,447.064 851.602,446.719C850.034,445.784 850.036,442.51 850.036,442.51C850.036,442.51 848.612,441.953 848.383,441.617C847.519,440.34 847.545,439.122 848.721,438.024C849.619,437.184 850.047,436.135 850.043,434.919C850.035,431.959 850.637,429.055 851.308,426.226C852.847,419.738 857.121,415.555 863.373,413.464C870.416,411.109 877.5,411.785 884.358,414.091C888.456,415.469 891.86,418.159 893.759,422.269C894.579,424.041 895.097,425.951 895.906,427.728C896.515,429.072 896.959,432.061 896.959,432.061C896.959,432.061 898.021,432.066 898.176,432.204C899.279,433.194 899.877,434.08 898.04,435.005C897.739,435.157 896.867,435.118 896.493,435.436C895.976,435.876 896.006,436.451 896.006,436.451C896.714,436.488 897.62,436.537 898.229,436.607C899.534,436.753 900.348,436.917 901.381,437.183C902.556,437.487 902.904,438.279 902.588,439.429C902.335,440.357 901.764,440.977 900.917,441.392C899.475,442.099 898.022,442.761 896.428,443.067C895.935,443.16 894.821,443.29 894.821,443.29C894.821,443.29 894.551,444.146 894.435,444.607C893.958,446.503 893.397,448.39 893.103,450.318C892.719,452.838 893.035,453.122 895.543,453.137C896.794,453.144 898.001,453.259 899.233,453.566C903.579,454.646 907.065,457.32 910.669,459.709C913.849,461.819 916.764,464.326 919.817,466.63C921.216,467.687 922.21,468.924 922.572,470.723C922.831,472.012 923.229,473.478 924.505,474.11C926.706,475.2 927.706,477.055 928.476,479.213C928.799,480.118 929.431,480.912 929.926,481.755C931.596,484.603 933.491,487.492 933.932,490.722C934.364,493.876 936.01,495.868 938.159,497.768C938.625,498.181 939.108,498.578 939.557,499.007C941.476,500.835 942.837,502.98 943.255,505.642C943.567,507.627 944.236,509.407 945.78,510.815C946.283,511.274 946.575,511.99 946.889,512.624C948.987,516.858 951.331,520.953 953.735,525.016C954.241,525.871 954.852,526.6 955.619,527.241C960.14,531.019 963.23,535.6 963.696,541.669C963.955,545.044 964.522,548.373 965.272,551.68C966.036,555.045 966.244,558.633 964.571,561.608C962.405,565.458 961.417,569.496 960.833,573.746C959.79,581.353 956.955,588.528 955.422,596.017C955.352,596.361 955.166,596.68 955.021,597.006C952,603.835 950.177,610.951 949.929,618.437C949.897,619.419 949.958,620.434 949.348,621.27C948.179,622.875 948.404,624.516 948.771,626.356C949.221,628.6 950.663,630.757 950.059,633.083C949.445,635.453 948.44,637.689 949.86,640.099C950.045,640.415 949.931,641.008 949.781,641.407C948.456,644.897 949.206,648.48 949.509,651.969C950.147,659.27 949.905,666.559 949.74,673.855C949.69,675.98 949.389,678.09 949.003,680.207C947.583,687.983 945.616,695.696 946.043,703.715C946.186,706.381 946.081,709.06 946.057,711.734C946.045,713.077 946.255,714.376 946.493,715.699C947.322,720.315 946.688,724.924 946.151,729.513C945.981,730.951 945.057,731.907 943.459,732.009C942.399,732.077 940.876,731.722 940.876,731.722C940.876,731.722 940.771,733.502 940.785,734.778C940.81,737.566 940.407,740.225 939.677,742.912C939.298,744.31 938.615,744.836 937.373,745.041C934.292,745.549 931.195,745.942 928.077,745.995C921.595,746.108 915.407,744.346 909.167,742.92C907.915,742.634 907.214,741.84 906.688,740.718C905.171,737.486 905.473,735.324 907.976,732.701C909.453,731.155 911.014,729.691 912.473,728.128C912.959,727.609 913.47,726.976 913.47,726.976C913.47,726.976 912.454,726.365 911.983,726.253C910.515,725.908 910.28,724.804 910.663,723.54C911.875,719.547 911.688,715.432 911.745,711.344C911.814,706.177 912.277,700.952 911.674,695.859C911.07,690.739 911.713,685.524 910.34,680.491C910.856,671.053 909.368,661.667 909.604,652.242C909.67,649.603 909.203,647.031 908.417,644.638C906.98,640.26 906.586,635.802 906.522,631.289C906.485,628.594 906.051,626.011 905.538,623.379C904.615,618.652 904.536,613.88 905.645,609.113C906.162,606.892 906.452,604.184 907.611,601.065C906.052,601.897 904.072,603.805 903.417,604.811Z" style="fill:rgb(208,183,17);fill-rule:nonzero;"/>
    </g>
</svg>
