<?xml version="1.0" encoding="UTF-8" standalone="no"?>
<!DOCTYPE svg PUBLIC "-//W3C//DTD SVG 1.1//EN" "http://www.w3.org/Graphics/SVG/1.1/DTD/svg11.dtd">
<svg width="100%" height="100%" viewBox="0 0 340 335" version="1.1" xmlns="http://www.w3.org/2000/svg" xmlns:xlink="http://www.w3.org/1999/xlink" xml:space="preserve" xmlns:serif="http://www.serif.com/" style="fill-rule:evenodd;clip-rule:evenodd;stroke-linejoin:round;stroke-miterlimit:2;">
    <g transform="matrix(1,0,0,1,-633.896,-28.2155)">
        <path d="M751.751,28.255C754.625,28.039 757.555,29.104 760.229,30.545C763.111,32.099 764.654,35.124 765.793,37.987C766.522,39.823 767.266,41.864 767.442,43.925C767.657,46.447 768.028,48.915 767.318,51.525C766.473,54.634 765.794,57.852 765.988,61.162C766.118,63.377 764.944,65.344 764.555,67.461C764.144,69.699 764.611,72.164 764.611,72.164C767.627,72.294 767.098,72.184 768.762,72.003C770.032,71.865 771.29,71.45 772.579,71.756C773.318,71.932 774.22,71.919 774.477,72.89C775.064,75.116 776.173,74.509 777.068,73.239C778.585,71.087 780.935,70.664 783.174,69.975C783.518,69.869 784.058,69.85 784.298,70.047C786.398,71.763 788.554,71 790.718,70.279C792.738,69.606 795.007,69.386 796.857,69.924C800.084,70.862 803.483,69.081 806.573,70.929C807.132,71.264 808.149,71.041 808.888,70.835C811.833,70.018 814.856,69.35 817.655,68.165C820.969,66.761 824.301,66.374 827.786,66.819C830.674,67.189 833.4,66.949 836.153,65.788C843.033,62.887 850.249,63.115 857.419,64.245C863.167,65.152 868.848,66.471 874.555,67.63C877.779,68.284 879.481,67.555 880.875,64.279C881.933,61.79 884.865,59.792 887.491,60.308C889.553,60.713 891.282,62.164 893.116,63.232C895.771,64.777 897.025,67.895 899.932,69.212C901.044,69.716 901.095,70.893 900.697,72.064C899.886,74.453 898.197,76.082 896.124,77.313C893.836,78.671 891.462,79.883 889.114,81.136C888.401,81.517 887.573,81.739 886.817,81.48C883.681,80.409 880.366,80.683 877.154,80.141C873.841,79.581 870.492,80.537 867.153,80.752C860.859,81.158 854.583,81.859 848.286,82.162C843.813,82.377 839.471,82.825 835.251,84.486C829.543,86.731 823.563,88.072 817.55,89.226C816.181,89.488 814.854,89.779 813.603,90.41C812.521,90.956 811.387,91.075 810.155,90.955C807.816,90.725 806.857,92.732 805.441,92.625C804.025,92.518 804.771,94.594 804.922,96.019C805.125,97.94 804.65,99.522 803.348,100.9C801.277,103.095 800.972,105.045 802.169,108.261C803.695,112.356 805.447,116.459 806.495,120.755C806.681,121.518 806.879,122.326 806.821,123.094C806.562,126.577 807.326,129.753 809.413,132.584C809.528,132.743 809.694,132.914 809.707,133.089C810.036,137.883 813.416,141.659 814.051,146.409C814.456,149.425 815.902,152.206 817.896,154.631C819.346,156.394 819.423,159.332 817.939,161.097C817.034,162.17 817.363,162.704 818.192,163.489C819.764,164.974 821.167,166.608 823.143,167.661C824.843,168.567 826.126,169.967 826.221,172.075C826.306,173.953 827.338,174.875 829.115,175.261C831.009,175.671 833.23,175.816 833.017,178.698C833.002,178.905 833.333,179.331 833.499,179.329C835.743,179.3 836.268,181.339 837.403,182.588C839.507,184.905 842.135,186.477 844.875,187.791C857.132,193.67 869.542,199.227 880.383,207.676C884.894,211.192 890.249,213.588 894.14,217.969C895.333,219.31 896.384,220.664 897.038,222.378C898.364,225.863 900.726,228.619 903.407,231.172C910.041,237.49 916.832,243.654 923.897,249.454C927.731,252.602 930.914,256.347 934.675,259.514C935.424,260.145 936.297,260.837 936.653,261.692C938.756,266.742 943.498,268.459 947.813,270.697C948.943,271.283 949.387,272.045 949.419,273.249C949.481,275.594 948.935,277.781 947.645,279.716C946.991,280.699 946.286,281.565 946.032,282.797C945.854,283.659 944.324,284.564 945.367,285.3C946.417,286.041 947.495,287.084 949.213,286.819C953.738,286.123 957.663,284.209 961.263,281.503C963.394,279.901 965.459,278.255 968.235,277.795C970.712,277.386 972.321,278.145 972.82,280.61C973.419,283.572 973.348,286.605 971.648,289.212C967.501,295.575 963.374,302.046 957.804,307.226C954.759,310.058 953.251,313.698 950.855,316.829C949.833,318.166 948.768,319.454 947.582,320.647C945.172,323.069 942.286,323.175 939.818,320.749C937.433,318.404 934.935,316.13 933.461,313.018C933.168,312.4 932.771,311.808 932.323,311.29C930.59,309.29 928.853,307.428 928.751,304.437C928.698,302.898 927.603,301.438 926.274,300.25C925.038,299.144 923.258,298.2 923.579,295.987C923.665,295.388 923.114,295.258 922.56,295.246C919.06,295.174 916.989,293.282 915.843,290.081C915.076,287.94 913.043,286.786 911.198,286.286C907.613,285.314 905.185,283.012 902.823,280.484C901.004,278.538 899.365,276.419 897.489,274.532C895.338,272.368 894.161,269.652 892.908,266.986C892.438,265.986 891.946,265.051 891.213,264.246C885.884,258.394 880.224,252.988 872.947,249.504C868.378,247.316 863.56,245.873 858.724,244.594C852.341,242.905 846.751,239.819 841.318,236.225C838.111,234.103 834.315,233.17 830.736,231.865C821.207,228.388 811.458,225.571 801.751,222.628C799.1,221.826 796.857,221.642 794.768,223.992C793.771,225.111 792.099,225.609 790.793,226.479C784.261,230.83 779.067,236.616 773.875,242.389C772.292,244.148 770.636,245.835 769.212,247.747C765.499,252.733 762.298,257.977 759.583,263.601C758.142,266.587 757.274,270.201 754.01,272.1C753.781,272.233 753.643,272.563 753.516,272.826C750.292,279.496 745.004,284.618 740.497,290.333C737.524,294.1 734.086,297.602 732.505,302.315C732.443,302.5 732.361,302.703 732.227,302.835C730.238,304.787 728.929,306.86 729.044,309.941C729.098,311.37 727.255,312.546 725.738,313.435C722.768,315.175 719.466,316.246 716.677,318.388C714.398,320.14 712.669,322.21 711.536,324.758C710.158,327.858 708.032,330.467 706.283,333.321C705.509,334.583 704.757,335.868 704.399,337.327C704.254,337.914 704.111,338.663 703.584,338.845C703.159,338.991 701.763,339.334 701.763,339.334C701.763,339.334 700.816,341.852 700.167,343.24C698.267,347.305 694.843,349.141 690.559,349.634C687.029,350.04 683.522,350.577 680.573,352.743C678.293,354.418 676.187,356.33 673.923,358.031C668.499,362.105 662.457,363.818 655.876,361.667C651.314,360.176 650.928,358.379 650.636,352.837C650.477,349.84 651.943,347.282 653.732,345.019C656.158,341.953 659.218,339.739 662.952,338.348C668.004,336.468 673.336,335.459 678.274,333.234C679.44,332.709 680.424,331.999 680.424,331.999C680.424,331.999 679.579,331.018 678.888,330.283C676.661,327.906 676.354,326.675 678.261,324.045C681.613,319.418 684.226,314.307 687.741,309.805C689.149,308.001 689.721,305.895 689.993,303.772C690.3,301.366 691.52,299.763 693.417,298.532C699.905,294.321 703.857,288.038 707.452,281.456C708.618,279.323 710.011,277.326 711.311,275.298C713.877,271.299 717.34,267.746 718.539,262.93C719.61,258.621 722.736,255.638 726.063,253.359C729.648,250.904 731.072,247.374 732.769,243.872C733.754,241.841 734.489,239.658 735.075,237.472C735.7,235.137 736.609,233.095 738.291,231.269C740.14,229.261 740.313,226.397 741.25,223.924C742.292,221.172 742.974,218.297 744.335,215.645C745.602,213.179 744.51,210.354 745.241,207.774C745.293,207.59 745.193,207.357 745.262,207.186C746.38,204.412 747.25,201.493 748.727,198.922C749.961,196.776 750.348,196.163 748.696,194.361C747.484,193.04 747.475,191.992 748.082,190.192C748.989,187.493 751.171,184.779 748.868,181.473C748.077,180.339 748.684,178.211 748.707,176.538C748.719,175.503 748.573,174.592 747.658,173.93C743.879,171.199 744.069,167.275 744.974,163.473C745.889,159.624 745.389,156.475 742.323,153.847C741.733,153.342 741.167,152.711 740.837,152.02C739.995,150.249 738.56,149.411 736.75,148.942C733.172,148.016 730.681,145.297 727.857,143.212C725.606,141.55 723.477,141.167 720.957,141.983C718.518,142.772 716.12,143.701 713.459,143.432C712.386,143.325 711.614,144.072 711.018,144.891C707.049,150.349 701.249,153.681 696.156,157.85C692.269,161.034 687.761,163.48 684.238,166.978C680.752,170.439 677.376,174.055 673.958,177.607C671.017,180.665 668.021,183.67 665.108,186.755C661.45,190.629 658.809,194.893 658.883,200.566C658.958,206.287 652.266,212.377 650.794,212.591C649.321,212.806 647.915,212.029 647.951,212.992C647.988,213.954 646.436,215.661 644.793,215.702C644.358,215.713 644.286,216.219 644.329,216.641C644.497,218.292 643.556,219.095 642.086,219.111C640.398,219.13 638.027,219.978 637.337,217.84C635.948,213.539 633.084,209.613 634.115,204.615C634.647,202.031 635.695,199.866 637.621,198.296C639.508,196.758 641.231,194.98 643.568,193.963C645.997,192.907 647.426,190.745 648.794,188.522C652.556,182.414 656.635,176.513 660.852,170.712C662.137,168.947 663.153,167.043 664.188,165.159C666.464,161.018 669.469,157.337 671.593,153.1C672.102,152.082 673.087,151.266 673.962,150.478C674.968,149.575 675.734,148.493 675.803,147.202C675.952,144.464 677.803,142.744 679.766,141.709C684.03,139.462 686.359,135.807 688.299,131.728C689.602,128.991 691.206,126.575 693.771,124.798C697.097,122.497 700.355,120.087 703.524,117.576C706.237,115.425 708.571,112.994 708.977,109.21C709.109,107.98 710.44,107.047 711.473,106.434C713.07,105.487 714.247,104.202 715.214,102.742C716.306,101.091 717.587,100.235 719.627,100.536C720.963,100.732 721.958,100.562 722.346,98.736C722.755,96.811 724.754,96.15 726.5,95.847C729.692,95.293 731.939,93.692 733.242,90.733C733.44,90.285 733.657,89.804 733.99,89.461C740.062,83.213 737.93,76.492 735.112,69.759C734.43,68.128 733.607,66.581 733.335,64.787C733.165,63.661 732.735,62.719 731.623,61.89C728.602,59.638 728.067,56.805 729.681,53.345C730.139,52.363 729.987,51.431 729.863,50.456C729.538,47.897 729.353,45.35 730.123,42.82C731.18,39.338 732.575,36.118 736.24,34.595C737.925,33.894 738.564,31.946 740.356,31.305C741.231,30.992 741.881,30.094 742.704,29.573C743.093,29.326 743.645,29.299 744.132,29.245C746.581,28.974 748.931,28.01 751.751,28.255Z" style="fill:rgb(208,183,17);fill-rule:nonzero;"/>
    </g>
</svg>
