<?xml version="1.0" encoding="UTF-8" standalone="no"?>
<!DOCTYPE svg PUBLIC "-//W3C//DTD SVG 1.1//EN" "http://www.w3.org/Graphics/SVG/1.1/DTD/svg11.dtd">
<svg width="100%" height="100%" viewBox="0 0 1297 746" version="1.1" xmlns="http://www.w3.org/2000/svg" xmlns:xlink="http://www.w3.org/1999/xlink" xml:space="preserve" xmlns:serif="http://www.serif.com/" style="fill-rule:evenodd;clip-rule:evenodd;stroke-linejoin:round;stroke-miterlimit:2;">
    <g>
        <path d="M365.641,155.141C363.096,158.12 363.077,158.068 358.724,159.639C341.495,165.853 324.276,172.099 307.058,178.341C294.417,182.923 281.784,187.518 269.146,192.104C268.828,192.22 268.501,192.315 268.178,192.416C264.317,193.623 263.154,193.123 261.458,189.552C259.709,185.874 258.281,182.071 256.983,178.216C256.768,177.576 256.578,176.925 256.333,176.295C254.771,172.245 255.17,171.276 259.396,169.797C282.213,161.811 305.053,153.886 327.864,145.883C336.707,142.78 345.509,139.563 354.292,136.296C355.523,135.839 356.411,135.909 357.424,136.614C357.997,137.011 359.458,137.799 359.458,137.799L360.693,137.172C360.693,137.172 361.018,136.003 361.249,135.517C361.869,134.215 362.631,133.188 364.291,133.301C365.001,133.349 365.612,133.09 365.945,132.37C366.849,130.415 368.415,130.235 370.208,130.875C370.834,131.099 371.345,131.125 371.592,130.477C372.042,129.297 372.832,128.648 374.088,128.497C374.408,128.458 374.692,128.18 374.705,127.791C374.779,125.167 376.089,124.118 378.678,124.604C378.955,124.656 379.559,124.397 379.551,124.329C379.197,120.852 382.67,122.536 383.676,120.595C383.864,120.235 383.684,119.807 383.679,119.355C383.667,118.389 384.671,116.927 386.685,117.04C389.575,117.202 388.75,112.31 392.947,113.646C395.247,114.378 397.615,116.078 399.585,118.039C400.348,118.797 402.333,120.009 402.333,120.009C402.333,120.009 403.386,119.35 404.717,118.112C407.734,115.305 410.21,112.152 410.341,107.753C410.362,107.055 410.522,106.35 410.996,105.861C413.691,103.075 415.485,99.443 419.658,98.077C422.462,97.158 424.277,94.516 426.091,92.204C426.52,91.658 427.22,90.538 427.22,90.538C427.22,90.538 425.91,89.891 424.921,88.901C424.054,88.031 422.772,87.755 421.971,86.715C421.244,85.773 420.236,86.073 419.181,86.334C415.646,87.209 414.678,86.387 414.754,82.798C414.767,82.232 414.784,81.667 414.785,81.101C414.787,80.299 414.81,79.462 413.87,79.114C413.557,78.998 413.181,78.503 413.181,78.503C413.181,78.503 412.128,79.376 411.723,79.726C409.253,81.852 406.725,83.909 403.792,85.379C401.547,86.504 400.328,85.78 400.372,83.256C400.404,81.301 400.979,79.295 402.376,77.999C403.199,77.238 404.203,76.057 404.203,76.057C404.203,76.057 403.191,74.342 402.623,73.454C399.381,68.397 398.457,62.832 399.021,56.891C399.224,54.756 400.021,52.946 401.055,51.212C407.028,41.184 418.282,34.793 430.564,37.005C436.259,38.031 440.258,41.604 444.404,45.09C445.29,45.834 445.114,46.873 445.202,47.898C445.429,50.571 447.618,51.688 449.876,50.366C451.045,49.682 452.195,48.953 453.293,48.16C455.268,46.735 457.088,45.967 459.348,47.885C459.805,48.272 461.142,48.856 461.142,48.856C461.142,48.856 462.492,47.268 463.063,46.331C464.153,44.546 465.64,43.271 467.152,41.902C473.32,36.322 485.607,38.617 489.967,45.5C492.704,49.819 496.172,53.512 499.456,57.393C504.111,62.897 508.447,68.723 511.226,75.476C513.645,81.356 516.813,86.819 520.106,92.228C522.438,96.054 523.547,100.29 524.096,104.7C524.685,109.452 526.605,113.832 528.083,118.319C530.528,125.751 532.603,133.235 533.277,141.06C533.668,145.59 532.905,150.095 533.051,154.623C533.11,156.46 533.422,158.088 534.273,159.793C537.06,165.379 537.365,171.275 535.683,177.26C533.283,185.801 529.259,193.581 524.542,201.05C522.794,203.816 521.226,206.708 519.745,209.628C516.187,216.648 511.327,222.924 507.992,230.044C506.526,233.171 504.092,235.868 503.539,239.392C502.95,243.14 501.871,246.736 500.617,250.299C500.334,251.1 500.89,251.456 501.666,251.655C507.033,253.034 511.917,255.45 516.367,258.725C517.924,259.871 519.497,261.572 521.314,261.505C525.387,261.353 527.313,264.809 530.414,266.201C530.992,266.459 531.688,267.041 531.828,267.6C532.832,271.611 536.399,273.234 539.219,275.424C541.795,277.425 544.623,279.13 547.106,281.27C547.89,281.944 548.476,282.23 549.473,281.68C551.116,280.773 552.563,281.35 553.701,282.684C555.43,284.71 558.217,285.823 558.892,288.773C559.063,289.522 559.766,289.776 560.495,289.749C562.52,289.675 564.582,289.958 566.541,289.19C570.205,287.753 573.896,288.335 577.556,289.127C580.139,289.686 581.468,291.275 581.879,294.054C582.907,300.979 580.835,307.273 578.283,313.459C577.139,316.232 575.809,318.804 577.46,321.806C577.708,322.255 577.651,322.925 577.597,323.478C576.682,332.552 574.648,341.304 570.046,349.298C569.71,349.882 569.278,350.414 568.859,350.946C566.043,354.517 564.833,355.072 561.505,350.424C559.591,347.75 559.159,344.349 558.317,341.201C557.325,337.49 556.523,333.727 555.687,329.976C555.358,328.507 554.604,327.256 553.898,325.968C553.612,325.445 553.281,324.919 552.646,325.028C550.326,325.426 549.183,323.728 547.832,322.407C546.205,320.816 544.34,319.587 542.407,318.385C533.599,312.914 524.71,307.561 515.357,303.099C506.791,299.011 498.873,293.79 490.431,289.507C488.923,288.743 487.48,287.872 485.626,288.549C484.449,288.979 483.472,288.186 482.521,287.551C481.949,287.17 480.999,286.448 480.999,286.448C480.999,286.448 480.274,287.632 479.882,288.331C476.688,294.026 473.441,299.701 469.983,305.237C468.317,307.904 466.09,310.215 464.21,312.756C462.8,314.659 461.537,316.671 460.212,318.638C460.086,318.826 459.877,319.046 459.899,319.228C460.388,323.308 457.064,325.389 455.201,328.232C454.311,329.588 453.445,330.743 451.416,330.396C449.932,330.142 449.775,331.426 449.69,332.683C449.521,335.177 451.122,337.135 451.525,339.482C452.164,343.183 451.61,345.772 448.523,347.677C447.25,348.464 445.458,349.021 444.265,348.602C442.316,347.919 440.404,347.53 440.404,347.53C440.404,347.53 438.896,348.858 437.73,350.475C436.804,351.761 435.615,352.143 434.326,352.394C424.943,354.218 415.476,354.652 405.958,353.892C402.935,353.651 399.835,353.805 397.006,352.31C395.293,351.404 393.231,349.024 393.646,347.71C394.243,345.811 395.093,344.109 397.37,343.304C402.146,341.614 407.058,340.114 410.929,336.527C411.749,335.766 414.114,333.745 414.114,333.745C414.114,333.745 413.208,333.738 413.185,333.172C413.072,330.497 413.627,328.671 415.157,326.512C417.818,322.751 420.496,318.956 422.901,315.012C426.541,309.047 430.258,303.122 433.201,296.754C435.233,292.355 437.493,288.061 439.558,283.677C442.05,278.386 445.563,273.661 447.878,268.256C448.844,266.002 448.958,263.682 449.508,261.403C449.824,260.097 448.886,259.629 448.167,258.93C446.068,256.892 445.932,255.792 447.396,253.272C448.725,250.986 450.668,249.228 452.607,247.507C454.219,246.076 454.88,244.419 454.366,242.368C453.796,240.105 453.993,237.906 454.458,235.656C454.826,233.884 454.824,232.068 454.49,230.257C453.337,224.005 451.925,218.119 452.268,211.798C452.786,202.208 454.061,192.145 455.716,182.637C456.649,177.276 458.877,172.525 461.641,167.951C462.517,166.499 463.358,165.011 464.385,163.67C465.787,161.841 465.855,160.098 464.857,158.034C463.572,155.371 464.596,152.447 464.305,149.649C464.146,148.126 464.035,146.765 462.754,145.732C462.132,145.231 461.604,144.552 461.712,143.696C461.901,142.204 461.267,141.47 459.883,140.954C458.633,140.487 458.35,139.111 457.806,137.989C456.046,134.363 454.108,130.86 451.214,127.95C449.752,126.479 448.376,125.686 446.538,127.164C445.504,127.995 443.455,127.374 443.152,128.339C442.164,131.495 439.792,132.059 437.092,132.576C436.324,132.723 435.686,133.659 435.032,134.277C431.996,137.147 428.881,139.941 425.971,142.933C421.891,147.125 416.497,148.388 411.216,150.015C405.229,151.859 399.029,152.411 392.875,153.253C390.856,153.529 388.831,153.687 388.831,153.687C388.831,153.687 388.722,155.756 388.625,157.752C388.459,161.159 387.472,162.424 384.179,163.103C381.397,163.676 378.566,163.888 375.739,163.518C373.826,163.268 371.917,163.168 369.992,163.137C366.809,163.085 365.792,161.951 365.851,158.749C365.871,157.65 366.417,156.538 365.641,155.141Z" style="fill:rgb(228,240,236);fill-rule:nonzero;"/>
        <path d="M73.978,110.142C74.137,112.351 74.48,114.564 74.417,116.767C74.297,120.989 76.963,123.255 80.092,125.336C76.959,120.679 77.462,114.669 73.978,110.142ZM254.576,356.687C252.931,356.581 251.148,356.501 249.373,356.345C246.421,356.085 245.251,354.913 244.875,351.935C244.636,350.041 243.369,349.252 242.289,350.58C239.223,354.349 236.176,352.325 233.796,350.386C229.917,347.224 225.511,345.656 220.919,344.037C213.15,341.303 205.614,337.912 197.896,335.025C193.4,333.344 188.78,332.218 183.844,332.151C180.859,332.112 177.747,331.992 175.022,329.419C173.494,327.975 171.117,326.626 168.857,325.866C166.635,325.117 164.844,323.947 163.516,322.089C162.254,320.327 160.537,319.293 158.611,318.419C155.779,317.134 152.708,316.374 150.081,314.658C146.529,312.339 145.874,308.744 148.433,305.336C149.806,303.509 151.028,301.534 153.006,300.207C153.806,299.671 154.65,299.06 154.65,299.06C154.65,299.06 153.686,297.35 153.381,296.874C146.919,286.736 141.595,275.977 136.021,265.347C134.25,261.968 131.549,259.076 129.276,255.958C128.664,255.118 127.854,254.347 127.499,253.408C126.339,250.334 124.083,249.872 121.125,250.011C117.042,250.201 112.972,250.197 108.941,251.084C107.447,251.413 105.833,251.159 104.284,251.288C98.778,251.748 93.142,251.539 87.903,253.598C83.379,255.374 78.747,256.584 73.97,257.36C71.653,257.736 70.948,259.249 72.003,261.425C72.714,262.892 73.502,264.307 73.504,266.026C73.506,267.397 74.795,268.143 75.31,269.286C76.774,272.537 78.506,275.878 78.711,279.336C78.918,282.831 81.471,286.268 79.274,289.894C78.967,290.401 79.175,291.122 79.569,291.581C81.419,293.74 81.873,296.528 82.982,299.016C83.233,299.58 83.473,300.087 84.031,300.389C86.532,301.748 87.863,303.918 88.649,306.607C89.987,311.188 92.31,315.322 94.816,319.353C94.972,319.605 95.282,319.857 95.274,320.1C95.16,323.271 97.529,324.822 99.4,326.796C102.254,329.809 101.577,332.875 97.916,334.846C94.171,336.863 90.232,338.372 86.163,339.588C84.217,340.17 82.219,339.691 80.224,340.179C75.465,341.342 71.313,343.848 66.963,345.866C59.501,349.326 51.863,351.119 43.637,350.003C41.436,349.704 40.584,348.128 41.322,346.021C42.746,341.957 45.128,339.281 49.386,337.618C55.377,335.279 59.022,330.58 59.372,323.845C59.434,322.67 59.829,322.039 60.996,321.563C62.012,321.147 63.516,320.667 63.55,319.366C63.601,317.44 62.969,315.563 61.952,313.881C61.829,313.678 61.383,313.469 61.186,313.539C58.832,314.388 58.591,312.462 57.825,311.102C54.405,305.037 50.789,299.077 47.523,292.931C43.544,285.446 39.066,278.278 34.286,271.298C32.578,268.805 30.845,266.283 28.582,264.208C27.378,263.105 26.607,261.754 26.783,260.076C26.877,259.177 26.371,258.553 26.14,257.796C25.263,254.916 25.127,251.84 23.836,249.052C23.659,248.668 23.861,247.994 24.089,247.56C24.921,245.978 25.104,244.491 23.861,243.014C23.465,242.544 23.399,241.917 23.514,241.313C24.384,236.749 23.649,232.123 24.047,227.532C24.252,225.165 23.274,222.867 22.631,220.579C21.818,217.683 23.077,216.394 26.108,216.269C33.453,215.967 37.536,220.286 40.692,226.075C41.358,227.296 41.884,228.436 41.884,228.436C41.884,228.436 43.23,227.828 44.553,227.395C54.652,224.09 62.708,217.108 72.01,212.392C81.119,207.773 90.724,204.48 100.61,201.977C103.128,201.34 105.64,200.678 108.16,200.051C109.292,199.768 109.521,199.339 108.956,198.181C107.871,195.961 108.266,194.67 110.36,193.256C111.273,192.639 111.732,191.961 111.671,190.893C111.663,190.746 111.651,190.585 111.699,190.451C113.355,185.718 112.37,181.095 111.427,176.372C110.898,173.725 111.301,170.894 111.272,168.145C111.25,165.992 111.204,163.837 111.179,161.683C111.171,160.989 111.115,159.873 111.115,159.873C111.115,159.873 110.029,160.259 109.553,160.393C107.57,160.954 105.454,160.951 103.58,162.016C102.585,162.581 101.344,162.678 100.369,162C97.618,160.094 94.442,159.034 91.557,157.474C86.675,154.835 82.245,151.411 78.373,147.32C73.507,142.178 69.378,136.444 65.024,130.896C62.652,127.874 59.098,126.169 56.955,122.97C56.749,122.661 56.265,122.137 56.265,122.137C56.265,122.137 55.579,122.902 55.302,123.221C54.669,123.948 54.051,124.704 53.549,125.522C52.915,126.556 52.165,127.448 50.887,126.908C49.638,126.38 48.586,125.504 48.596,123.915C48.603,122.753 49.035,121.793 49.754,120.866C51.025,118.935 51.918,117.287 51.918,117.287C51.918,117.287 50.514,115.815 49.108,114.532C48.615,114.08 48.133,113.616 47.623,113.183C45.632,111.496 45.295,109.702 46.805,107.608C47.489,106.66 47.573,106.162 47.681,105.023C47.709,104.732 48.081,103.875 48.267,103.732C49.205,103.009 49.469,102.746 49.882,101.776C50.067,101.342 50.127,100.047 50.273,99.59C50.465,98.986 51.035,98.585 51.242,97.973C51.586,96.954 52.034,96.119 51.892,94.985C51.645,93.007 52.637,91.617 54.476,91.091C55.35,90.84 56.971,90.123 56.971,90.123C56.971,90.123 56.74,88.846 56.758,88.206C56.926,82.147 61.233,79.777 65.953,77.755C66.496,77.523 67.114,77.443 67.623,77.159C70.411,75.606 73.04,75.679 75.354,77.997C75.907,78.55 76.667,79.123 76.667,79.123C76.667,79.123 77.515,78.238 77.922,77.635C86.682,64.642 96.571,52.46 105.306,39.447C112.336,28.97 120.1,18.988 126.521,8.095C127.877,5.793 129.688,3.798 131.467,1.805C132.208,0.976 133.083,0.585 134.252,0.933C138.104,2.076 141.853,3.509 145.452,5.266C148.981,6.989 149.53,8.496 147.401,11.739C141.502,20.721 136.017,29.983 128.32,37.704C123.247,42.794 119.12,48.767 114.145,54.005C106.889,61.643 99.913,69.548 92.844,77.362C90.503,79.951 88.262,82.63 85.933,85.23C85.167,86.085 84.099,87.447 84.099,87.447C84.099,87.447 84.561,89.028 84.6,89.551C84.832,92.699 85.858,95.649 86.853,98.599C87.288,99.888 87.487,100.93 86.906,102.367C85.967,104.693 87.095,106.931 88.616,108.707C91.948,112.599 95.441,116.352 98.869,120.162C99.687,121.072 101.918,123.029 101.918,123.029C101.918,123.029 102.901,119.951 103.392,119.118C105.245,115.967 105.33,112.506 105.632,109.037C105.739,107.804 106.35,106.553 107.369,105.748C110.76,103.074 112.829,99.325 115.398,95.989C116.496,94.565 117.641,93.464 119.567,93.423C121.393,93.383 122.082,92.18 122.353,90.536C122.506,89.607 122.375,87.967 122.375,87.967C122.375,87.967 121.142,87.616 120.551,87.391C119.139,86.852 118.686,85.925 119.393,84.606C119.686,84.061 120.09,83.118 120.09,83.118C120.09,83.118 119.135,82.691 118.49,82.496C117.103,82.077 116.927,81.13 117.847,80.145C118.808,79.114 118.941,77.997 118.877,76.669C118.222,63.168 129.019,53.947 140.333,53.956C147.677,53.961 153.229,57.91 157.062,64.171C158.472,66.475 159.413,69.009 159.899,71.621C160.391,74.255 162.046,76.773 160.391,79.738C159.74,80.902 161.09,82.492 161.97,83.707C163.624,85.989 163.62,86.091 161.232,87.525C160.646,87.877 159.556,88.525 159.556,88.525C159.556,88.525 159.8,89.614 159.788,90.089C159.734,92.007 160.025,93.959 159.331,95.828C159.307,95.894 159.291,95.988 159.318,96.047C160.847,99.304 161.1,103.217 164.001,105.756C165.984,107.492 168.347,108.693 168.576,111.909C168.665,113.16 170.178,114.326 171.083,115.499C171.736,116.346 172.258,117.126 171.913,118.326C171.522,119.672 172.314,120.782 173.128,121.749C174.889,123.843 175.654,126.209 175.541,128.941C175.352,133.456 175.966,137.993 174.94,142.489C174.421,144.764 173.359,146.802 172.569,148.955C170.163,155.519 169.619,162.371 169.417,169.276C169.389,170.256 169.587,171.224 170.076,172.069C171.698,174.874 172.021,177.893 171.981,181.081C171.932,185 173.656,188.778 173.144,192.76C172.725,196.004 173.842,199.077 174.12,202.243C174.44,205.897 172.572,209.304 172.958,213.03C173.184,215.195 173.117,217.309 174.622,219.077C175.387,219.977 175.462,220.814 174.635,221.834C173.645,223.055 173.853,224.585 174.511,225.834C176.007,228.672 175.963,231.458 174.919,234.41C173.656,237.981 172.742,241.473 173.937,245.456C174.713,248.052 174.148,251.059 174.117,253.881C174.093,255.902 174.492,257.824 174.894,259.801C176.691,268.64 178.902,277.43 178.938,286.541C178.94,287.284 179.002,288.025 179.059,288.765C179.186,290.45 179.972,291.31 181.789,291.198C183.039,291.119 184.304,291.295 185.562,291.372C185.932,291.395 186.481,291.329 186.637,291.537C188.367,293.836 191.284,294.376 193.331,296.142C194.133,296.835 194.704,297.544 195.893,297.595C198.319,297.696 200.333,298.675 201.696,300.797C202.094,301.417 202.528,302.151 203.291,302.288C207.641,303.068 210.851,306.014 214.428,308.2C220.417,311.856 226.716,314.785 233.253,317.284C235.835,318.27 238.551,318.592 241.154,319.281C246.724,320.754 252.822,321.147 257.336,325.474C257.924,326.038 258.637,326.478 259.187,327.072C261.709,329.78 261.818,331.026 259.51,333.94C258.721,334.935 258.926,335.188 259.674,336.177C261.751,338.919 264.944,341.051 264.874,345.143C264.846,346.657 265.855,348.074 266.027,349.651C266.431,353.35 264.764,355.56 261.147,356.187C259.009,356.556 256.858,356.513 254.576,356.687Z" style="fill:rgb(228,240,236);fill-rule:nonzero;"/>
        <path d="M85.419,678.913C82.674,682.576 80.838,685.656 78.226,689.125C76.364,691.599 73.985,693.619 71.574,695.554C69.03,697.596 67.166,700.337 64.526,702.268C64.464,702.313 64.39,702.381 64.377,702.449C63.873,704.996 61.863,706.754 60.914,709.044C60.26,710.621 60.368,712.331 61.329,713.843C62.158,715.148 62.575,716.545 62.706,718.084C62.896,720.316 63.968,722.321 64.509,724.466C64.8,725.617 65.164,726.762 65.31,727.933C65.618,730.373 64.279,732.541 61.945,733.304C59.754,734.021 57.471,734.409 55.159,734.253C52.077,734.046 49.012,733.676 45.979,733.05C44.493,732.743 43.035,732.434 41.761,731.551C40.872,730.936 39.886,730.748 38.816,730.937C33.875,731.811 28.857,731.473 23.881,731.811C22.198,731.925 20.421,731.702 18.727,731.161C14.432,729.789 9.973,728.797 6.221,726.131C3.428,724.146 0.859,721.947 0.129,718.279C-0.4,715.612 0.719,712.728 3.068,711.349C4.874,710.29 6.715,709.784 8.923,709.906C13.977,710.183 19.044,710.128 23.81,707.898C25.256,707.222 26.61,706.43 27.945,705.577C28.567,705.181 29.579,704.674 29.579,704.674C29.579,704.674 28.786,703.675 28.53,703.313C27.937,702.473 27.815,701.32 28.392,700.358C30.195,697.352 30.997,693.903 32.729,690.857C38.445,680.801 43.875,670.576 50.057,660.793C52.489,656.944 53.985,652.671 56.148,648.712C56.588,647.907 56.684,647.038 56.272,646.195C55.39,644.392 55.79,642.889 57.094,641.42C57.924,640.485 58.339,639.342 58.506,637.993C58.719,636.278 59.563,634.687 60.882,633.438C62.327,632.068 63.603,630.555 64.601,628.825C65.225,627.742 66.158,626.956 67.286,626.576C70.435,625.518 72.645,623.319 74.707,620.868C76.287,618.989 77.784,617.061 79.202,615.049C81.639,611.59 84.904,609.169 89.101,608.165C90.755,607.769 92.204,608.066 93.482,609.269C95.346,611.023 97.098,612.822 97.779,615.408C97.979,616.168 98.326,616.897 98.669,617.609C99.012,618.323 99.518,618.643 100.02,617.758C100.301,617.263 100.51,616.823 101.14,616.659C105.438,615.539 109.462,613.663 113.579,612.05C116.011,611.097 118.382,609.986 120.771,608.924C121.858,608.441 122.937,607.973 124.118,607.734C124.723,607.611 125.418,607.401 125.836,606.99C126.989,605.856 128.285,605.174 129.86,604.727C131.528,604.254 131.564,603.428 130.238,602.26C130.177,602.208 130.121,602.148 130.054,602.109C126.214,599.887 126.109,596.318 126.761,592.587C127.033,591.029 127.292,589.661 125.737,588.644C125.493,588.484 125.19,588.161 125.193,587.917C125.223,585.202 123.323,583.431 122.059,581.348C121.4,580.262 120.792,579.152 120.766,577.827C120.747,576.863 120.405,576.032 119.972,575.149C118.163,571.452 115.895,568.075 113.279,564.92C112.868,564.423 112.397,563.929 112.306,563.312C111.993,561.189 110.574,559.601 109.72,557.743C109.526,557.322 109.272,556.868 108.918,556.592C107.219,555.264 105.613,553.886 104.818,551.78C104.691,551.444 104.276,551.218 103.996,550.939C101.07,548.035 98.415,544.908 96.14,541.463C95.838,541.007 95.481,540.567 95.075,540.201C90.624,536.201 89.99,531.103 90.943,525.601C91.197,524.133 91.632,522.681 92.256,521.292C92.727,520.242 93.337,519.365 94.283,518.725C95.876,517.649 97.208,516.31 98.331,514.751C99.558,513.051 100.993,511.696 103.115,511.063C104.865,510.542 104.864,510.373 104.559,508.517C104.33,507.122 104.798,506.006 105.743,505.074C106.41,504.415 107.185,503.866 107.971,503.219C107.442,502.777 107.261,502.497 107.091,502.504C104.703,502.59 103.406,500.995 102.122,499.355C101.868,499.03 101.612,498.736 101.859,498.312C102.651,496.957 101.678,496.864 100.723,496.447C97.54,495.054 96.87,494.326 94.625,490.614C94.21,489.929 92.633,486.63 92.633,486.63C92.633,486.63 91.234,486.313 90.56,485.721C89.328,484.638 88.586,483.33 88.118,481.745C87.649,480.158 87.764,478.735 88.738,477.47C89.057,477.055 89.509,476.659 89.509,476.659C89.509,476.659 89.447,475.096 89.354,474.416C88.853,470.757 90.013,467.374 91.534,464.103C91.7,463.743 91.968,463.426 92.097,463.057C93.808,458.165 97.858,455.908 102.25,454.061C107.494,451.856 112.917,451.334 118.542,452.222C120.529,452.535 121.746,453.906 123.168,454.957C127.766,458.355 131.155,462.79 133.659,467.909C134.22,469.054 134.465,470.305 134.728,471.547C135.022,472.929 135.283,474.276 136.368,475.396C137.206,476.262 137.229,477.586 137.259,478.777C137.337,481.946 137.367,485.116 137.42,488.285C137.433,489.001 137.486,489.699 136.81,490.224C136.316,490.607 136.253,491.186 136.513,491.733C136.823,492.383 137.439,492.254 137.973,492.151C139.798,491.801 141.578,491.604 143.2,492.853C143.767,493.289 144.183,492.745 144.671,492.497C146.754,491.433 148.464,489.685 150.918,489.285C155.646,488.518 160.221,488.694 164.486,491.153C165.191,491.56 166.704,492.668 166.704,492.668C166.704,492.668 167.952,491.364 168.724,490.613C170.763,488.631 172.749,486.595 174.786,484.611C177.427,482.039 179.996,481.691 183.165,483.471C184.27,484.091 185.318,484.811 186.411,485.451C187.571,486.133 188.722,486.845 189.936,487.419C191.601,488.207 194.849,488.702 194.849,488.702C194.849,488.702 196.239,487.86 198.405,486.552C205.901,481.093 213.621,475.948 221.151,470.541C227.272,466.147 233.501,461.933 239.92,458.005C246.81,453.79 253.752,449.665 261.237,446.534C266.059,444.517 270.652,441.975 275.584,440.195C284.235,437.074 292.994,434.315 301.948,432.191C305.393,431.374 306.459,432.633 309.937,435.391C312.248,437.068 313.708,438.188 315.189,439.495C316.776,440.896 315.414,442.952 312.925,444.374C312.041,444.879 310.914,445.534 310.003,446.002C285.64,458.473 236.61,482.813 212.109,495.008C210.617,495.751 208.424,496.776 206.65,497.663C205.411,498.283 203.475,499.064 203.475,499.064C203.475,499.064 202.612,499.507 201.806,499.892C201.218,500.174 200.286,500.603 200.286,500.603C200.286,500.603 200.028,500.723 199.857,500.861C200.277,501.491 200.506,502.154 200.814,503.079C201.597,505.43 198.47,506.508 197.78,508.309C197.672,508.592 197.609,508.898 197.609,508.898C197.609,508.898 198.037,509.332 198.247,509.486C204.262,513.902 207.743,520.183 210.701,526.772C212.649,531.11 210.759,535.669 206.487,537.776C205.769,538.13 205.025,538.41 204.215,538.406C198.385,538.364 192.65,537.777 187.337,535.124C185.854,534.383 184.477,533.434 183.052,532.58C182.712,532.377 182.391,532.13 182.031,531.974C181.487,531.738 180.414,530.994 180.414,530.994C180.414,530.994 180.567,532.386 180.697,532.956C181.228,535.286 181.307,537.67 181.685,540.012C182.041,542.216 182.085,544.41 182.105,546.634C182.138,550.511 182.503,554.388 182.457,558.262C182.366,565.89 183.317,573.428 184.065,580.989C184.143,581.779 184.424,582.284 184.965,582.805C187.015,584.779 188.921,586.913 191.069,588.771C193.802,591.135 195.516,594.103 196.708,597.409C197.403,599.334 198.027,601.281 198.293,603.356C198.589,605.659 198.28,607.724 197.088,609.707C196.223,611.145 195.932,612.542 196.477,614.352C197.103,616.431 197.152,618.735 197.147,620.94C197.14,624.423 196.949,627.909 196.707,631.387C196.481,634.631 195.046,637.524 193.354,640.182C192.169,642.045 192.203,643.714 192.911,645.564C194.327,649.268 196.141,652.78 198.068,656.241C199.569,658.939 200.943,661.706 202.402,664.427C203.035,665.605 203.048,666.983 203.833,668.151C204.352,668.923 204.741,669.83 205.406,670.487C207.333,672.388 208.127,674.685 207.9,677.327C207.783,678.697 208.057,679.808 209.206,680.649C209.584,680.925 209.85,681.352 210.222,681.639C211.634,682.728 212.449,684.044 212.052,685.911C211.973,686.283 211.964,686.741 212.392,686.956C212.863,687.191 213.111,686.806 213.351,686.502C214.193,685.441 215.26,684.94 216.635,685.024C217.514,685.076 218.355,684.783 219.186,684.514C224.417,682.82 229.822,682.028 235.26,681.409C236.292,681.292 237.309,681.307 238.331,681.541C241.462,682.257 244.61,682.129 247.789,681.837C254.028,681.264 260.29,681.101 266.555,681.097C268.942,681.096 271.201,680.921 273.321,679.489C275.252,678.185 277.618,678.75 279.819,678.736C282.253,678.72 284.337,678.026 285.523,675.695C286.771,673.24 288.899,671.883 291.451,671.339C293.338,670.937 295.077,670.25 296.839,669.543C298.529,668.866 300.237,668.24 302.105,668.21C303.443,668.187 304.629,668.534 305.584,669.467C310.105,673.879 313.028,679.06 313.274,685.527C313.298,686.153 313.51,686.773 313.539,687.4C313.623,689.248 314.217,691.111 312.893,692.869C312.329,693.618 312.474,694.7 313.26,695.483C313.708,695.928 314.08,696.502 314.609,696.806C317.223,698.311 317.939,700.938 318.532,703.549C319.394,707.343 319.575,711.213 319.718,715.11C319.883,719.607 318.672,723.837 317.911,728.159C317.682,729.459 316.842,730.619 316.736,731.997C316.712,732.315 316.415,732.479 316.09,732.604C313.632,733.548 311.455,732.669 309.721,730.605C306.432,726.689 304.938,721.918 302.966,717.366C302.009,715.157 300.386,713.406 298.973,711.51C298.591,710.997 297.975,711.098 297.435,711.071C289.99,710.687 282.498,710.242 275.219,712.174C270.323,713.474 265.308,714.193 260.458,715.756C255.343,717.404 250.01,718.364 244.802,719.735C241.669,720.559 238.574,721.511 235.595,722.854C233.588,723.76 231.447,724.424 229.308,724.973C225.619,725.918 222.14,727.459 218.513,728.58C215.372,729.55 212.246,729.519 209.106,729.127C207.245,728.894 205.388,728.525 203.538,728.034C197.112,726.326 190.673,724.685 184.354,722.602C183.156,722.207 181.893,722.122 180.604,722.206C178.783,722.325 176.959,722.196 175.171,721.767C174.558,721.618 173.955,721.485 173.432,721.062C171.663,719.631 171.653,718.215 173.534,716.993C175.185,715.919 177.015,715.158 178.676,714.067C179.768,713.35 180.682,712.603 181.384,711.506C182.449,709.841 183.608,708.237 184.898,706.359C183.57,705.753 182.776,704.876 181.875,704.126C177.199,700.233 172.455,696.416 167.999,692.266C165.683,690.109 163.372,687.936 161.2,685.637C160.076,684.448 159.241,682.982 158.309,681.617C153.489,674.558 149.261,667.153 145.372,659.545C144.222,657.296 142.842,655.164 141.63,652.945C141.146,652.06 140.622,651.882 139.718,652.325C137.411,653.459 134.93,653.906 132.385,654.146C131.212,654.256 130,654.464 128.914,654.901C125.928,656.105 122.868,655.986 119.781,655.649C117.72,655.425 115.784,655.433 113.753,656.285C110.769,657.541 107.604,658.367 104.511,659.362C101.545,660.316 100.373,659.795 99.081,656.98C98.824,656.42 98.297,655.687 98.297,655.687C98.297,655.687 97.937,656.335 97.554,656.817C96.791,657.776 96.278,658.773 96.344,660.061C96.402,661.201 96.053,662.27 95.16,663.06C94.65,663.51 94.584,664.075 94.353,664.709C94.116,665.358 93.969,665.526 93.708,665.939C92.197,668.323 91.201,670.004 89.657,672.272L85.419,678.913Z" style="fill:rgb(228,240,236);fill-rule:nonzero;"/>
        <path d="M516.63,494.63C517.068,496.127 518.382,496.756 519.094,497.851C520.456,499.935 521.323,502.241 522.284,504.508C525.339,511.732 529.115,518.657 531.305,526.24C531.771,527.857 533.004,530.251 533.004,530.251C533.004,530.251 535.742,530.37 536.774,530.531C539.19,530.903 541.677,530.995 544.127,530.938C550.919,530.779 557.475,532.347 563.987,533.838C568.101,534.781 572.159,534.695 576.263,534.809C576.747,534.822 579.083,534.816 579.083,534.816L578.127,533.45C578.127,533.45 577.438,533.094 577.124,532.815C576.272,532.061 575.631,531.08 574.783,530.376C573.004,528.901 571.198,527.409 568.766,527.021C566.469,526.655 564.548,524.714 564.154,522.443C564.094,522.095 564.735,521.357 564.735,521.357C564.735,521.357 562.91,519.501 561.8,518.946C558.237,517.16 554.776,515.168 550.86,514.154C549.202,513.722 547.382,513.375 546.055,512.284C544.046,510.627 541.985,509.065 539.8,507.662C537.487,506.176 535.566,504.254 533.558,502.406C531.1,500.144 527.857,498.951 525.219,496.994C522.546,495.011 519.662,495.128 516.63,494.63ZM495.874,425.866C497.361,425.954 498.079,426.506 499.43,426.677C503.37,427.175 506.22,429.198 508.793,432.178C512.62,436.613 514.013,441.822 514.606,447.388C514.814,449.339 515.399,451.004 516.947,452.28C517.623,452.835 518.091,453.564 518.452,454.372C518.919,455.428 519.682,456.246 520.588,456.968C523.232,459.073 523.327,460.879 520.979,463.3C520.659,463.629 520.227,463.658 519.435,464.32C521.481,465.418 524.057,466.712 526.168,467.769C528.095,468.731 530.044,469.67 532.052,470.441C533.578,471.025 533.648,471.95 533.229,473.267C532.624,475.17 532.063,477.09 531.546,479.021C531.298,479.949 530.588,481.111 530.588,481.111C530.588,481.111 532.303,482.089 532.868,482.438C536.046,484.396 539.203,486.311 542.688,487.688C545.6,488.837 547.583,491.327 550.07,493.103C556.328,497.567 561.655,503.095 567.303,508.259C569.261,510.05 571.517,511.535 574.01,512.544C574.789,512.86 576.009,513.43 576.009,513.43C576.009,513.43 576.138,512.009 576.195,511.164C576.278,509.92 576.776,508.821 577.289,507.77C578.088,506.124 579.792,505.448 581.682,505.71C583.245,505.928 584.589,506.657 585.878,507.498C592.434,511.787 598.313,516.855 603.349,522.866C604.4,524.121 605.334,524.638 607.079,524C610.196,522.862 612.769,524.414 615.122,526.318C615.416,526.554 615.771,526.984 615.749,527.299C615.713,527.801 615.451,528.751 615.451,528.751C615.451,528.751 617.243,529.206 618.304,529.343C620.331,529.606 622.317,532.543 622.317,532.543C622.317,532.543 624.017,533.26 624.591,533.448C637.564,537.689 650.323,542.554 663.287,546.814C672.394,549.805 681.421,553.037 690.56,555.934C693.031,556.716 695.589,557.198 698.006,558.179C700.208,559.074 701.279,560.797 701.768,562.993C702.574,566.6 702.601,570.267 702.472,573.926C702.347,577.482 700.503,580.506 695.24,579.69C686.687,577.938 678.442,576.42 670.129,573.694C664.69,571.909 658.675,569.837 653.419,567.56C644.686,563.776 638.768,560.677 627.525,555.52C624.313,554.044 621.14,552.515 617.919,551.068C617.585,550.916 616.655,550.587 616.655,550.587C616.655,550.587 615.945,551.231 615.455,551.736C613.518,553.728 613.475,553.751 611.037,552.625C610.364,552.315 609.216,551.76 609.216,551.76C609.216,551.76 608.913,553.387 608.82,553.844C608.307,556.396 606.488,557.08 604.334,557.388C600.83,557.888 597.303,558.063 593.771,557.74C591.863,557.565 590.204,556.78 588.748,555.497C586.399,553.428 583.99,551.43 581.626,549.379C581.231,549.036 580.835,548.627 580.613,548.165C580.204,547.31 579.528,547.044 578.673,547.04C575.012,547.023 571.371,547.043 567.728,547.67C563.64,548.374 559.482,548.091 555.356,547.912C550.571,547.705 545.798,547.228 541.004,547.225C539.924,547.223 538.14,546.978 538.14,546.978C538.14,546.978 538.84,548.544 539.162,549.514C539.631,550.938 538.944,551.8 538.083,552.684C537.603,553.176 536.997,553.78 537.904,554.286C540.345,555.651 541.847,558.049 544.037,559.691C544.997,560.409 545.873,561.2 546.999,561.685C547.923,562.082 548.879,562.673 549.186,563.637C549.684,565.207 550.859,565.595 552.216,565.794C553.432,565.973 554.563,566.374 555.54,567.089C558.649,569.371 562.01,571.286 565.042,573.691C566.752,575.048 568.671,576.091 570.127,577.827C572.01,580.074 573.077,582.736 574.198,585.327C575.173,587.578 576.615,589.437 577.971,591.398C578.283,591.848 578.964,592.757 578.964,592.757C578.964,592.757 579.727,592.09 580.242,591.638C582.254,589.871 582.26,590.042 584.378,591.56C586.711,593.233 588.377,595.422 590.026,597.689C590.726,598.65 591.529,599.606 592.479,600.301C596.119,602.972 597.974,606.925 600.125,610.667C601.12,612.4 601.979,614.2 603.6,615.488C604.79,616.435 605.408,617.811 605.896,619.186C607.629,624.079 609.994,628.709 611.854,633.548C612.435,635.056 612.708,636.608 612.469,638.203C612.386,638.758 612.35,639.243 612.625,639.739C614.674,643.427 615.004,647.617 616.06,651.593C617.218,655.966 618.424,660.346 619.313,664.763C620.56,670.961 622.618,676.959 623.516,683.244C624.021,686.786 625.29,690.213 625.955,693.742C626.521,696.745 627.507,699.434 629.404,701.888C631.179,704.184 631.006,704.512 628.919,706.395C628.682,706.61 627.134,707.136 627.134,707.136C627.134,707.136 627.175,708.399 628.156,709.468C628.253,709.575 628.227,709.873 628.158,710.041C627.189,712.383 628.926,713.451 630.196,714.931C631.632,716.606 633.702,717.407 635.111,719.118C636.024,720.227 637.76,720.309 639.189,720.535C640.957,720.817 642.763,720.905 644.556,720.951C648.682,721.06 652.248,724.333 652.572,728.433C652.688,729.912 651.521,730.373 650.457,730.678C647.96,731.395 645.419,731.951 642.907,732.607C638.82,733.671 634.677,734.185 630.45,734.145C628.948,734.13 627.436,733.957 626.165,733.331C623.776,732.157 621.299,732.082 618.767,732.097C613.504,732.13 608.242,732.257 602.981,732.175C600.683,732.139 598.362,732.025 596.125,731.152C595.028,730.723 594.687,730.237 595.143,729.282C595.882,727.733 595.95,726.283 595.109,724.729C594.696,723.963 594.81,723.006 595.109,722.179C596.071,719.529 595.878,716.812 595.694,714.082C595.539,711.775 595.103,709.446 596.034,707.186C596.196,706.788 596.085,706.399 595.93,706.023C594.428,702.385 594.294,698.354 592.661,694.754C591.702,692.643 590.853,690.477 589.789,688.419C588.685,686.285 587.748,684.098 587.049,681.806C586.313,679.386 584.827,677.284 584.145,674.837C584.013,674.368 583.439,673.092 583.439,673.092C583.439,673.092 582.867,673.238 582.53,673.211C581.084,673.095 580.711,672.176 580.314,671.041C579.877,669.788 579.232,668.61 578.706,667.386C577.712,665.084 577.634,663.63 578.221,662.394C578.34,662.145 578.564,661.993 578.564,661.993C578.564,661.993 578.149,660.859 578.009,660.466C576.375,655.888 574.915,651.263 573.74,646.541C573.284,644.705 573.504,642.827 573.018,641.007C572.433,638.825 572.276,638.627 570.077,638.609C569.477,638.604 568.873,638.565 568.276,638.616C564.827,638.91 562.167,637.262 559.737,635.114C558.471,633.993 557.191,633.01 555.459,632.697C553.355,632.316 551.862,631.041 550.857,629.178C550.447,628.416 550.073,627.634 549.65,626.879C548.579,624.967 547.564,623.111 545.255,622.23C543.794,621.672 542.729,620.319 541.842,618.951C541.412,618.284 540.964,617.456 540.04,617.576C539.022,617.708 539.06,618.687 538.896,619.458C537.635,625.389 536.03,631.246 534.169,636.998C532.943,640.785 533.667,644.509 533.402,648.252C533.363,648.814 532.913,649.878 532.913,649.878C532.913,649.878 534.784,649.999 535.368,650.104C541.035,651.112 544.985,654.753 548.548,658.868C550.1,660.66 549.517,663.269 547.418,665.438C544.963,667.978 542.286,670.284 539.736,672.722C536.364,675.95 532.511,678.68 529.363,682.075C526.186,685.499 522.702,688.437 518.748,690.767C514.971,692.993 511.111,695.317 506.983,696.662C492.461,701.399 478.688,707.979 464.475,713.463C457.332,716.219 450.303,719.275 443.253,722.265C440.806,723.304 438.482,724.635 436.041,725.693C432.215,727.348 431.259,726.772 430.788,722.625C430.729,722.113 430.421,721.416 430.421,721.416C430.421,721.416 429.691,721.661 429.379,721.767C426.062,722.887 422.526,723.272 419.473,725.313C415.924,727.684 412.337,730 409.047,732.707C405.515,735.615 401.668,736.753 397.167,735.753C395.958,735.486 395.286,734.865 394.951,733.75C394.205,731.267 394.168,728.703 394.696,726.23C395.585,722.054 396.884,717.951 398.778,714.136C400.077,711.524 401.472,708.706 404.61,707.639C407.304,706.723 407.703,704.126 408.629,702.017C409.561,699.9 410.878,698.333 412.917,697.303C413.722,696.898 414.451,697.078 415.228,697.342C417.859,698.235 420.466,698.859 423.119,697.268C423.683,696.929 424.561,696.987 425.276,697.052C429.712,697.458 433.869,696.396 437.941,694.792C439.615,694.133 441.321,693.558 443.01,692.938C445.553,692.003 447.341,690.288 448.374,687.777C448.709,686.957 449.326,686.369 450.007,685.801C454.87,681.746 459.875,677.894 465.292,674.596C465.633,674.389 465.951,674.142 466.272,673.905C468.004,672.625 469.419,671.607 469.419,671.607C469.419,671.607 468.445,669.553 467.683,668.059C466.734,666.199 466.859,666.04 468.904,665.885C470.214,665.786 471.363,665.311 472.1,664.12C472.309,663.783 472.526,663.442 472.789,663.144C475.018,660.601 475.773,660.58 477.774,663.271C478.502,664.248 479.924,665.867 479.924,665.867C479.924,665.867 482.148,664.61 483.402,663.754C486.211,661.838 489.494,661.144 492.278,659.347C492.956,658.911 493.636,658.626 493.809,657.671C493.965,656.803 494.827,656.517 495.56,656.179C496.534,655.733 497.102,655.175 496.333,654.029C495.727,653.124 495.974,652.202 496.772,651.52C497.802,650.638 497.813,649.586 497.465,648.427C497.118,647.26 497.023,646.115 497.327,644.892C497.648,643.597 497.695,642.29 496.854,641.063C496.41,640.413 496.338,639.571 496.26,638.761C495.465,630.547 494.66,622.333 493.836,614.121C493.523,611.001 494.124,607.887 493.834,604.762C493.765,604.006 493.803,603.32 493.183,602.779C492.984,602.607 492.682,602.365 492.693,602.171C492.882,599.176 490.334,597.786 488.767,596.008C486.897,593.888 485.647,591.657 484.834,589.005C483.839,585.762 482.591,582.597 481.483,579.387C480.646,576.958 480.321,574.458 480.813,571.918C481.109,570.383 480.54,568.804 480.95,567.343C481.938,563.82 481.718,560.43 480.319,557.082C480.294,557.024 480.274,556.945 480.292,556.887C481.151,554.022 479.651,551.451 479.287,548.74C479.23,548.321 479.101,547.962 478.808,547.673C477.521,546.406 476.922,544.799 476.512,543.091C476.166,541.644 475.413,540.423 474.524,539.226C471.043,534.528 467.553,529.834 464.053,525.153C460.101,519.863 457.718,513.769 457.859,506.946C457.897,505.084 457.875,503.238 457.49,501.381C456.714,497.634 458.006,494.111 459.072,490.627C460.516,485.915 461.957,481.206 463.162,476.427C463.325,475.782 463.627,475.14 463.646,474.492C463.784,469.344 466.857,465.592 469.661,461.714C470.197,460.971 470.684,460.102 470.252,459.324C469.42,457.822 469.887,456.171 469.439,454.65C469.367,454.403 469.323,454.081 469.419,453.861C469.773,453.039 470.035,451.201 470.035,451.201C470.035,451.201 469.22,450.816 468.198,450.604C467.607,450.481 467.771,449.542 467.833,448.966C468.287,444.82 469.342,440.89 471.643,437.315C472.834,435.462 473.993,433.657 475.592,432.092C478.674,429.079 482.091,426.836 486.478,426.352C486.877,426.308 487.201,426.265 487.663,426.176C491.558,425.424 493.061,425.698 495.874,425.866Z" style="fill:rgb(228,240,236);fill-rule:nonzero;"/>
        <path d="M690.126,503.979C690.126,505.585 689.985,506.975 689.367,508.147C687.637,511.416 683.703,513.563 679.128,511.463C677.194,510.576 674.969,509.63 673.972,507.181C672.752,504.186 674.332,498.938 677.219,497.431C681.35,495.278 686.026,496.338 689.048,500.107C689.171,500.26 689.561,500.75 689.658,500.932C690.183,501.919 690.126,502.862 690.126,503.979Z" style="fill:rgb(228,240,236);fill-rule:nonzero;"/>
        <path d="M263.777,118.498C263.777,120.104 263.635,121.494 263.017,122.666C261.288,125.935 257.353,128.082 252.779,125.982C250.844,125.095 248.62,124.149 247.623,121.7C246.403,118.705 247.982,113.457 250.87,111.95C255,109.797 259.676,110.857 262.699,114.626C262.822,114.779 263.211,115.269 263.308,115.451C263.833,116.438 263.777,117.381 263.777,118.498Z" style="fill:rgb(228,240,236);fill-rule:nonzero;"/>
        <path d="M1274.11,436.861C1274.26,440.133 1274.1,443.808 1274.19,447.049C1274.27,450.143 1274.16,453.242 1274.25,456.334C1274.31,458.575 1275.1,460.438 1277.49,461.185C1279.54,461.826 1281.02,461.119 1281.75,459.078C1282.23,457.737 1282.17,456.326 1282.16,454.93C1282.13,447.943 1282.06,440.954 1282.05,433.966C1282.04,432.611 1281.98,430.418 1281.98,430.418C1281.98,430.418 1284.18,430.766 1285.79,431.671C1287.54,432.651 1288.56,432.455 1290.23,431.196C1293.21,428.949 1294.16,426.195 1294.9,422.676C1295.66,419.048 1294.91,415.78 1294.52,412.363C1294.46,411.878 1294.35,411.277 1294.04,410.967C1292.65,409.61 1292.64,407.884 1292.82,406.215C1293.02,404.304 1292.97,402.695 1291.41,401.656C1290.48,401.034 1288.94,400.307 1288.94,400.307C1288.94,400.307 1288.92,398.127 1289,397.214C1289.36,393.247 1289.31,389.245 1289.49,385.259C1290.02,373.7 1290.51,362.137 1291.13,350.583C1291.64,341.217 1292.53,331.885 1293.27,322.527C1293.86,314.933 1294.02,309.656 1294.66,302.828C1295.09,298.262 1295.72,293.711 1296.2,289.146C1296.32,287.959 1296.38,286.754 1296.33,285.563C1296.27,283.972 1295.59,282.531 1294.16,281.85C1290.65,280.185 1287.6,277.717 1283.89,276.383C1279.98,274.975 1279.03,275.26 1277,278.976C1274.99,282.67 1274.54,286.774 1273.86,290.774C1271.16,306.747 1270.02,322.891 1269.7,339.054C1269.36,356.119 1269.68,373.199 1269.72,390.271C1269.73,393.066 1269.81,395.86 1269.82,398.654C1269.83,399.885 1269.92,400.791 1271.31,401.529C1271.87,401.827 1273.19,401.912 1273.19,401.912L1273.33,405.141C1273.33,405.141 1271.92,405.821 1271.25,406.088C1267.71,407.498 1267.31,410.472 1267.21,413.395C1267.1,416.737 1266.06,419.22 1263.48,421.45C1260.6,423.941 1257.41,425.988 1254.43,428.313C1253.22,429.257 1251.8,429.707 1250.21,429.095C1249.36,428.766 1248.41,428.713 1247.56,429.017C1245.32,429.81 1243.04,429.4 1240.77,429.492C1237.29,429.632 1234.35,428.73 1231.62,426.567C1229.76,425.096 1227.77,423.645 1225.13,423.896C1224.77,423.93 1224.19,423.789 1224.06,423.543C1223.03,421.604 1221.56,421.575 1219.76,422.318C1219.11,422.583 1218.32,422.408 1217.75,421.989C1215.16,420.103 1212.04,419.673 1209.09,418.784C1205.86,417.808 1204.43,415.982 1204.19,412.522C1203.99,409.582 1203.02,408.64 1200.03,408.753C1198.44,408.813 1196.86,409.082 1195.28,409.344C1194.76,409.43 1193.59,410.12 1193.59,410.12C1193.59,410.12 1193.11,408.453 1193.11,407.404C1193.11,406.051 1193.21,403.529 1193.21,403.529C1193.21,403.529 1194.34,402.887 1194.73,402.504C1196.41,400.834 1196.93,398.682 1196.36,396.184C1195.56,392.664 1196.15,389.03 1195.93,385.448C1195.82,383.613 1195.61,381.893 1194.65,380.298C1193.23,377.942 1193.26,374.857 1190.89,372.961C1187.91,370.58 1184.83,368.437 1180.83,368.327C1179.63,368.294 1178.44,368.273 1177.27,367.939C1174.4,367.119 1171.58,366.89 1168.9,368.579C1168.73,368.685 1168.54,368.787 1168.35,368.8C1162.63,369.197 1161.37,373.74 1159.55,377.969C1157.32,383.155 1158.75,388.239 1159.75,393.242C1160.26,395.806 1160,398.181 1159.76,400.606C1159.48,403.311 1160.41,405.368 1162.54,406.782C1162.91,407.025 1163.78,406.599 1163.78,406.599C1163.78,406.599 1164.9,409.456 1165.13,410.632C1165.63,413.094 1166.38,415.459 1167.35,417.759C1167.69,418.551 1168.27,420.007 1168.27,420.007C1168.27,420.007 1166.81,420.121 1166.24,420.096C1162.3,419.915 1158.84,421.138 1155.54,423.106C1150.01,422.684 1144.77,424.931 1139.26,424.821C1136.63,424.767 1134.12,424.24 1131.65,423.394C1124.45,420.935 1116.99,419.64 1109.56,418.155C1103.18,416.88 1096.64,416.749 1090.34,415.223C1084.25,413.748 1078.15,412.201 1072.63,408.97C1069.75,407.284 1067.41,405.439 1067,401.801C1066.84,400.36 1066.21,398.891 1065.48,397.609C1064.4,395.7 1063.14,393.912 1060.42,394.189C1059.13,394.322 1057.95,393.494 1056.69,393.188C1055.75,392.956 1054.9,392.373 1054.9,392.373C1054.9,392.373 1055.27,391.351 1055.64,390.74C1056.52,389.281 1055.43,386.195 1053.38,385.136C1046.62,381.651 1039.65,378.192 1031.74,380.009C1024.95,381.57 1019.24,385.238 1015.25,391.112C1013.64,393.48 1011.9,395.78 1011.06,398.648C1009.46,404.091 1010.84,409.121 1013.01,413.992C1013.53,415.182 1014.42,416.987 1014.42,416.987C1014.42,416.987 1013.48,418.819 1013.04,419.61C1012.21,421.08 1011.61,422.677 1010.94,424.23C1010.7,424.775 1010.44,425.343 1010.38,425.92C1010.03,429.234 1011.63,430.558 1014.64,429.099C1018.72,427.114 1023.09,425.387 1025.38,420.953C1025.64,420.452 1026.14,419.835 1026.63,419.734C1029.33,419.17 1030.41,417.046 1031.45,414.78C1033.31,415.442 1034.43,417.382 1036.58,417.166C1037.12,417.112 1037.11,417.883 1036.99,418.382C1036.68,419.728 1035.69,420.576 1034.77,421.498C1032.68,423.586 1032.54,424.447 1033.99,426.99C1034.85,428.509 1035.3,430.096 1035.36,431.829C1035.38,432.404 1035.39,433.112 1036.23,433.135C1036.89,433.155 1037.35,432.726 1037.62,432.167C1038.36,430.703 1038.06,429.159 1037.52,427.798C1036.36,424.87 1037.61,422.811 1039.54,420.839C1039.88,420.501 1040.49,419.383 1040.49,419.383C1040.49,419.383 1041.73,419.687 1042.47,419.923C1043.22,420.162 1044,420.29 1045.03,420.532C1044.76,418.751 1046.41,416.955 1045.46,415.571C1044.23,413.79 1045.34,413.749 1045.48,413.491C1045.9,412.704 1047.23,411.593 1047.23,411.593C1047.23,411.593 1050.13,412.51 1051.44,413.616C1057.15,418.437 1063.2,422.61 1070.54,424.777C1077.8,426.917 1084.83,429.736 1091.83,432.67C1097.8,435.172 1103.52,438.3 1109.72,440.204C1115.54,441.989 1121.44,443.366 1127.51,444.059C1135.03,444.92 1142.58,445.761 1149.78,448.326C1151.02,448.767 1152.28,448.959 1153.61,448.902C1156.46,448.776 1157.46,449.764 1156.95,452.567C1156.66,454.179 1156.55,455.652 1157.03,457.252C1157.52,458.882 1157.9,460.408 1159.23,461.695C1160.3,462.727 1160.45,464.394 1160.49,465.908C1160.54,468.295 1160.77,470.698 1159.9,473.022C1159.58,473.873 1159.49,474.833 1159.86,475.671C1162.07,480.701 1161.61,486.225 1162.82,491.443C1163.7,495.218 1164.2,499.045 1165.81,502.67C1167.05,505.449 1166.75,508.561 1165.84,511.477C1165.25,513.375 1164.41,515.199 1163.65,517.042C1162.33,520.263 1162.76,523.29 1164.6,526.178C1165.08,526.936 1165.59,527.677 1166.03,528.458C1167.64,531.308 1167.62,531.688 1165.22,534.086C1162.32,536.974 1161.26,540.663 1160.28,544.473C1159.23,548.556 1159.6,552.798 1158.64,556.879C1158.51,557.42 1158.68,558.076 1158.85,558.636C1159.53,560.852 1158.93,562.784 1158.24,564.968C1157.26,568.113 1155.04,570.388 1153.65,573.2C1151.39,577.745 1150.69,582.703 1149.59,587.563C1148.17,593.882 1146.23,600.074 1145.28,606.51C1144.74,610.176 1144.37,613.836 1144.25,617.531C1144.15,620.658 1144.1,623.868 1144.1,623.868C1144.1,623.868 1141.09,622.884 1138.52,622.252C1131.66,620.562 1125.77,622.778 1120.04,626.104C1119,626.706 1118.1,627.499 1117.54,628.624C1116.33,631.078 1116.72,632.73 1119.05,634.23C1125.7,638.511 1131.64,643.652 1137.27,649.177C1138.51,650.401 1139.51,651.67 1139.53,653.55C1139.55,655.354 1140.7,656.636 1142.23,657.195C1145.76,658.479 1148.49,661.055 1151.78,662.713C1153.73,663.701 1155.59,664.719 1157.99,664.106C1158.73,663.917 1160.65,664.802 1160.65,664.802C1160.65,664.802 1160.93,665.633 1161.01,666.616C1161.36,670.674 1162.19,674.676 1161.98,678.803C1161.52,687.991 1162.83,697.13 1162.97,706.31C1163.01,708.815 1163.51,711.418 1164.79,713.796C1166.12,716.283 1165.55,719.063 1165.29,721.721C1165.19,722.754 1164.22,723.385 1163.34,723.869C1158.52,726.507 1154.17,729.876 1149.59,732.877C1148.28,733.735 1146.84,733.959 1145.36,734.245C1141.81,734.935 1138.75,736.407 1136.95,739.816C1135.97,741.685 1136.15,742.637 1137.86,743.804C1138.71,744.386 1139.69,744.598 1140.69,744.675C1147.84,745.226 1154.97,746.176 1162.18,745.972C1164.99,745.892 1167.8,745.647 1170.38,744.505C1173.28,743.223 1176.23,743.337 1179.19,743.792C1186.48,744.91 1193.69,744.998 1200.83,742.867C1203.77,741.989 1204.11,741.675 1204.14,738.479C1204.15,737.386 1204.15,736.268 1203.94,735.201C1203.31,731.872 1202.72,728.553 1203.04,725.139C1203.12,724.245 1203.21,723.189 1202.59,722.538C1199.7,719.554 1200.28,714.888 1197.33,711.937C1196.69,711.302 1196.8,710.251 1196.8,709.347L1196.8,704.554C1196.8,696.928 1196.8,696.928 1200.77,690.574C1201.25,689.806 1201.53,688.31 1201.53,688.31C1201.53,688.31 1203.36,689.16 1204.22,689.658C1207.93,691.803 1212.03,693.191 1215.54,695.742C1217.79,697.368 1220.54,698.174 1222.94,699.634C1225.88,701.418 1226.84,704.012 1226.07,707.032C1225.12,710.751 1224.72,714.455 1224.76,718.268C1224.77,720.084 1224.07,721.827 1223.07,723.327C1221.32,725.936 1221.19,728.993 1220.6,731.889C1220.13,734.193 1222.92,736.079 1225.47,735.601C1229.32,734.878 1232.51,732.912 1235.44,730.47C1237.65,728.62 1239.73,726.603 1241.88,724.674C1244.89,721.97 1246.68,718.345 1249.01,715.128C1250.72,712.749 1251.27,709.793 1251.5,706.915C1251.67,704.831 1252.31,703.336 1254.11,702.214C1256.44,700.761 1258.02,698.704 1259.29,696.198C1260.71,693.398 1261.5,690.424 1262.49,687.512C1263.87,683.415 1262.42,679.897 1258.44,677.677C1257.23,677.004 1254.41,676.402 1254.41,676.402C1254.41,676.402 1255.74,674.209 1255.74,673.534C1255.76,671.142 1254.43,669.033 1253.15,667.264C1252.11,665.821 1249.83,665.646 1247.9,666.211C1246.86,666.519 1245.87,667.047 1244.83,667.391C1240.34,668.873 1235.9,669.257 1231.56,666.835C1230.43,666.204 1229.23,665.687 1228.05,665.151C1224.92,663.729 1222.64,661.715 1220.66,658.646C1217.12,653.157 1212.85,648.111 1207.29,644.322C1204.85,642.659 1202.8,640.406 1200.62,638.374C1199.79,637.599 1199.34,636.579 1199.45,635.409C1199.72,632.53 1200.05,629.765 1201.92,627.254C1204.12,624.307 1204.78,620.633 1204.79,617.049C1204.81,612.424 1205.34,607.928 1206.41,603.443C1206.99,601.038 1206.92,598.53 1207.7,596.106C1208.5,593.572 1208.95,591.023 1210.75,588.819C1211.74,587.605 1211.95,585.678 1212.28,584.026C1212.58,582.553 1213.22,581.435 1214.43,580.599C1214.84,580.318 1215.43,580.059 1215.57,579.66C1216.69,576.55 1219.3,574.36 1220.7,571.579C1221.97,569.068 1223.32,566.452 1224.18,563.689C1227.46,553.186 1227.13,543.043 1221.15,533.485C1220.26,532.056 1219.93,530.8 1220.41,529.031C1221.27,525.798 1221.14,522.512 1219.18,519.555C1218.37,518.336 1218.24,516.953 1218.25,515.534C1218.27,512.539 1218.25,509.543 1218.25,506.548C1218.25,505.95 1218.36,505.328 1218.24,504.754C1217.57,501.603 1216.9,498.47 1219.49,495.782C1218.83,492.631 1220.7,490.334 1222.09,487.844C1222.62,486.882 1222.65,485.667 1222.37,484.612C1221.45,481.162 1222.5,477.88 1223.14,474.583C1223.45,473.008 1223.81,471.47 1223.74,469.859C1223.66,468.328 1224.12,466.909 1224.63,465.49C1225.27,463.701 1225.84,461.915 1225.09,459.96C1224.74,459.062 1228.89,452.006 1229.76,451.752C1230.37,451.575 1231,451.676 1231.51,451.943C1235.63,454.074 1239.88,453.474 1244.04,452.34C1246.52,451.668 1248.96,451.561 1251.45,451.632C1253.21,451.683 1254.76,451.31 1256.25,450.322C1257.82,449.281 1259.55,448.467 1261.21,447.56C1265.2,445.384 1268.48,442.372 1271.45,438.979C1272.01,438.342 1272.75,436.98 1274.11,436.861Z" style="fill:rgb(228,240,236);fill-rule:nonzero;"/>
        <path d="M1065.6,223.726C1066.15,240.261 1066.52,251.532 1066.92,262.802C1067.05,266.414 1064.86,268.62 1062.32,270.602C1059.32,272.951 1056.23,275.185 1052.71,276.741C1051.34,277.347 1050.39,278.583 1048.88,279.042C1047.8,279.374 1047.72,280.486 1047.77,281.515C1047.83,282.688 1048.34,283.538 1049.49,283.892C1051.22,284.427 1053.01,284.672 1054.81,284.829C1057.65,285.078 1060.5,285.03 1063.34,285.091C1067.34,285.178 1071.27,284.51 1075.24,284.505C1077.53,284.502 1079.69,283.818 1081.83,283.118C1082.73,282.821 1083.53,282.774 1084.44,283.02C1087.61,283.88 1090.85,283.762 1094.08,283.527C1096.08,283.382 1096.74,282.68 1096.86,280.683C1096.98,278.888 1097.1,277.079 1096.56,275.307C1096.28,274.36 1096.17,273.33 1096.42,272.405C1097.05,270.029 1096.75,267.63 1096.81,265.24C1096.85,263.659 1096.71,260.102 1096.71,260.102C1096.71,260.102 1097.52,260.038 1097.6,259.759C1098.48,256.993 1098.2,253.958 1098.12,251.025C1098.1,250.407 1097.65,250.127 1097.2,249.837C1096.21,249.196 1095.88,248.267 1096.03,247.116C1096.48,243.546 1096.58,239.92 1097.76,236.463C1097.92,235.971 1097.91,235.386 1098.27,234.991C1099.48,233.659 1099.72,232.041 1099.61,230.359C1099.57,229.712 1098.94,229.585 1098.94,229.585C1098.94,229.585 1100.15,222.548 1100.88,219.66C1101.53,217.068 1101.21,214.422 1101.38,211.803C1101.43,210.973 1101.06,210.343 1100.48,209.826C1100,209.401 1099.02,208.827 1099.02,208.827C1099.02,208.827 1099.62,207 1099.77,206.136C1100.27,203.384 1102.62,201.984 1103.88,199.813C1104.03,199.547 1104.7,198.627 1104.7,198.627C1104.7,198.627 1105.3,199.244 1105.71,199.371C1106.43,199.594 1107.13,199.876 1107.83,200.154C1109.61,200.861 1111.31,200.686 1112.57,199.225C1113.59,198.047 1114.6,197.942 1115.95,198.432C1117.18,198.882 1118.47,198.705 1119.73,198.406C1120.25,198.282 1120.88,198.172 1121.09,197.689C1121.83,195.945 1123.35,195.971 1124.85,195.85C1126.37,195.73 1127.79,195.247 1129.18,194.645C1129.81,194.371 1130.5,194.052 1130.81,193.477C1132.32,190.591 1135.14,188.446 1135.61,184.957C1135.73,184.073 1135.99,183.207 1136.09,182.305C1136.5,178.439 1136.93,174.575 1137.43,170.72C1137.58,169.505 1137.51,167.918 1137.51,167.918C1137.51,167.918 1139.19,168.155 1140.55,168.365C1141.35,168.487 1142.07,168.34 1142.72,167.941C1144.4,166.893 1146.23,166.614 1148.14,166.866C1150.6,167.193 1152.37,166.212 1153.65,164.203C1154.12,163.454 1154.83,163.097 1155.55,162.681C1157.62,161.475 1159.76,160.344 1161,158.115C1161.23,157.7 1162.32,156.065 1162.32,156.065C1162.32,156.065 1163.16,156.842 1163.93,157.09C1167.25,158.174 1170.1,157.16 1172.77,155.205C1172.89,155.118 1173.02,155.042 1173.15,154.958C1174.05,154.351 1175.66,153.694 1175.66,153.694C1175.66,153.694 1175.84,154.852 1176.08,156.316C1176.6,159.583 1176.91,162.875 1177.23,166.168C1177.34,167.268 1177.23,168.255 1176.57,169.162C1174.27,172.385 1173.94,175.876 1174.82,179.686C1175.48,182.531 1175.76,185.464 1176.17,188.364C1176.36,189.672 1176.82,190.79 1177.75,191.766C1179.67,193.776 1180.6,196.226 1181.32,198.909C1181.94,201.217 1182.05,203.482 1182.12,205.802C1182.14,206.472 1182.08,207.226 1182.36,207.792C1183.03,209.142 1183.14,210.552 1183.01,211.972C1182.82,214.063 1183.89,215.891 1184.09,217.921C1184.32,220.291 1185.04,222.625 1185.66,224.946C1186.24,227.127 1186.61,229.337 1187,231.558C1187.49,234.352 1188.34,237.096 1189.19,239.809C1189.85,241.892 1190.64,243.852 1191.15,245.96C1191.27,246.469 1191.92,248.668 1192.06,249.102C1193.19,252.529 1192.88,253.148 1193.94,255.84C1194.54,257.351 1194.77,259.034 1195,260.662C1195.5,264.238 1196.11,267.774 1197.15,271.247C1197.52,272.498 1197.43,273.87 1197.92,275.156C1198.3,276.151 1198.61,276.632 1199.83,276.388C1200.73,276.206 1201.53,276.023 1202.28,275.451C1202.63,275.187 1203.64,274.492 1203.64,274.492C1203.64,274.492 1203.44,275.717 1203.5,276.092C1203.62,276.782 1203.55,277.517 1203.15,278.048C1202.07,279.474 1201.23,281.047 1199.78,282.232C1197.69,283.93 1196.47,286.338 1196.03,288.968C1195.64,291.293 1196.51,292.173 1198.85,292.691C1201.87,293.362 1204.95,293.492 1208.01,293.826C1211.51,294.207 1214.88,293.201 1218.27,292.693C1220.07,292.424 1221.44,291.013 1222.72,289.748C1223.55,288.942 1224.45,288.326 1225.5,287.868C1227.25,287.101 1228.05,285.521 1227.56,283.692C1227.02,281.659 1226.46,279.621 1225.75,277.646C1225.31,276.421 1225.72,274.271 1225.72,274.271C1225.72,274.271 1226.51,274.571 1226.61,274.499C1228.49,273.207 1228.99,271.26 1229.04,269.178C1229.1,266.247 1229.03,263.315 1229,260.383C1228.98,259.05 1228.56,257.9 1227.5,256.997C1226.35,256.026 1225.9,254.726 1225.72,253.235C1224.85,246.073 1223.82,238.929 1224.09,231.68C1224.23,227.698 1223.91,223.697 1223.61,219.757C1223.31,215.859 1222.68,211.875 1221.23,208.106C1219.26,202.994 1217.5,197.805 1215.67,192.642C1215.44,192.011 1215.25,191.344 1215.19,190.679C1214.8,186.641 1214.02,182.659 1213.51,178.642C1212.95,174.113 1211.17,170.309 1207.83,167.224C1207.39,166.817 1206.95,166.4 1206.53,165.968C1205.38,164.779 1205.28,164.258 1205.97,162.777C1207.09,160.397 1208.16,158.005 1208.78,155.435C1209.31,153.248 1209.42,150.994 1210.06,148.809C1211.23,144.758 1212.63,140.806 1214.43,136.991C1215.59,134.53 1215.75,131.737 1216.82,129.249C1217.9,126.773 1217.53,124.304 1217.28,121.733C1216.86,117.517 1214.92,113.913 1213.25,110.181C1212.43,108.337 1211.88,106.401 1210.79,104.638C1208.46,100.897 1205.37,98.035 1201.6,95.868C1200.32,95.131 1199.31,94.234 1198.6,92.925C1197.41,90.716 1195.5,89.698 1192.99,89.979C1191.58,90.137 1190.47,89.854 1189.8,88.49C1189.55,87.999 1189.06,87.788 1188.56,87.573C1184.87,85.988 1181.44,84.024 1178.99,80.699C1178.58,80.141 1178.01,79.709 1177.36,79.526C1174.85,78.815 1172.91,77.062 1170.62,75.93C1169.9,75.572 1169.23,75.014 1168.68,74.419C1167.21,72.843 1165.5,71.621 1163.47,70.964C1159.97,69.834 1156.89,67.688 1153.26,66.875C1152,66.595 1150.78,66.326 1149.48,66.365C1146.7,66.447 1143.92,66.5 1141.14,66.527C1140,66.538 1138.41,66.969 1138.41,66.969C1138.41,66.969 1138.85,65.184 1138.96,64.091C1139.19,61.931 1139.23,59.749 1139.28,57.575C1139.3,56.65 1138.87,55.844 1138.25,55.134C1136.89,53.573 1136.17,51.905 1136.14,49.668C1136.09,46.853 1135.56,43.962 1134.51,41.308C1133.42,38.539 1131.39,36.326 1129.08,34.517C1124.35,30.822 1119.03,28.525 1112.91,28.43C1112.16,28.419 1111.42,28.269 1110.67,28.233C1109.54,28.178 1108.48,28.207 1107.47,28.981C1106.72,29.558 1105.72,29.798 1104.82,30.18C1098.43,32.907 1094.13,37.46 1092.27,44.251C1091.77,46.067 1091.34,47.881 1091.1,49.743C1090.96,50.825 1090.57,51.664 1089.63,52.385C1088.16,53.509 1088.09,54.634 1089.05,56.217C1089.63,57.186 1090.42,58.809 1090.42,58.809C1090.42,58.809 1089.1,59.813 1088.46,60.378C1088.13,60.678 1087.73,60.92 1087.44,61.257C1085.43,63.568 1085.93,64.987 1088.22,65.735C1088.85,65.941 1090.09,66.087 1090.09,66.087C1090.09,66.087 1089.82,67.635 1089.72,68.441C1089.49,70.354 1089.7,72.324 1089.74,74.269C1089.76,75.209 1090.04,76.016 1090.86,76.61C1091.66,77.193 1093.48,78.327 1093.48,78.327C1093.48,78.327 1092.36,80.071 1091.9,80.952C1091.34,82.041 1090.36,82.777 1089.56,83.67C1087.17,86.347 1084.66,88.974 1083.39,92.429C1082.06,96.019 1082.35,99.825 1083.16,103.328C1084.31,108.339 1085.51,113.426 1088.03,118.029C1089.6,120.871 1091.56,123.459 1093.6,125.914C1095.16,127.778 1096.51,129.751 1097.72,131.795C1098.86,133.732 1100.75,135.164 1101.36,137.44C1101.55,138.134 1102.31,138.06 1102.85,138.276C1104.03,138.74 1104.07,139.026 1103.19,140.005C1102.84,140.394 1102.49,140.787 1102.12,141.161C1099.81,143.509 1098.52,146.436 1097.16,149.381C1095.63,152.707 1093.14,155.321 1090.05,157.327C1088.98,158.024 1087.9,158.708 1086.83,159.407C1085.42,160.327 1084.38,161.351 1084.11,163.258C1083.73,165.915 1082.2,166.846 1079.31,166.244C1077.79,165.93 1076.51,165.93 1075.24,166.727C1073.69,167.701 1072.38,168.909 1071.63,170.637C1069.41,175.681 1067.98,180.962 1066.79,186.322C1066,189.914 1065.17,193.482 1065.2,197.218C1065.3,207.81 1065.32,218.404 1065.6,223.726Z" style="fill:rgb(228,240,236);fill-rule:nonzero;"/>
        <path d="M751.751,28.255C754.625,28.039 757.555,29.104 760.229,30.545C763.111,32.099 764.654,35.124 765.793,37.987C766.522,39.823 767.266,41.864 767.442,43.925C767.657,46.447 768.028,48.915 767.318,51.525C766.473,54.634 765.794,57.852 765.988,61.162C766.118,63.377 764.944,65.344 764.555,67.461C764.144,69.699 764.611,72.164 764.611,72.164C767.627,72.294 767.098,72.184 768.762,72.003C770.032,71.865 771.29,71.45 772.579,71.756C773.318,71.932 774.22,71.919 774.477,72.89C775.064,75.116 776.173,74.509 777.068,73.239C778.585,71.087 780.935,70.664 783.174,69.975C783.518,69.869 784.058,69.85 784.298,70.047C786.398,71.763 788.554,71 790.718,70.279C792.738,69.606 795.007,69.386 796.857,69.924C800.084,70.862 803.483,69.081 806.573,70.929C807.132,71.264 808.149,71.041 808.888,70.835C811.833,70.018 814.856,69.35 817.655,68.165C820.969,66.761 824.301,66.374 827.786,66.819C830.674,67.189 833.4,66.949 836.153,65.788C843.033,62.887 850.249,63.115 857.419,64.245C863.167,65.152 868.848,66.471 874.555,67.63C877.779,68.284 879.481,67.555 880.875,64.279C881.933,61.79 884.865,59.792 887.491,60.308C889.553,60.713 891.282,62.164 893.116,63.232C895.771,64.777 897.025,67.895 899.932,69.212C901.044,69.716 901.095,70.893 900.697,72.064C899.886,74.453 898.197,76.082 896.124,77.313C893.836,78.671 891.462,79.883 889.114,81.136C888.401,81.517 887.573,81.739 886.817,81.48C883.681,80.409 880.366,80.683 877.154,80.141C873.841,79.581 870.492,80.537 867.153,80.752C860.859,81.158 854.583,81.859 848.286,82.162C843.813,82.377 839.471,82.825 835.251,84.486C829.543,86.731 823.563,88.072 817.55,89.226C816.181,89.488 814.854,89.779 813.603,90.41C812.521,90.956 811.387,91.075 810.155,90.955C807.816,90.725 806.857,92.732 805.441,92.625C804.025,92.518 804.771,94.594 804.922,96.019C805.125,97.94 804.65,99.522 803.348,100.9C801.277,103.095 800.972,105.045 802.169,108.261C803.695,112.356 805.447,116.459 806.495,120.755C806.681,121.518 806.879,122.326 806.821,123.094C806.562,126.577 807.326,129.753 809.413,132.584C809.528,132.743 809.694,132.914 809.707,133.089C810.036,137.883 813.416,141.659 814.051,146.409C814.456,149.425 815.902,152.206 817.896,154.631C819.346,156.394 819.423,159.332 817.939,161.097C817.034,162.17 817.363,162.704 818.192,163.489C819.764,164.974 821.167,166.608 823.143,167.661C824.843,168.567 826.126,169.967 826.221,172.075C826.306,173.953 827.338,174.875 829.115,175.261C831.009,175.671 833.23,175.816 833.017,178.698C833.002,178.905 833.333,179.331 833.499,179.329C835.743,179.3 836.268,181.339 837.403,182.588C839.507,184.905 842.135,186.477 844.875,187.791C857.132,193.67 869.542,199.227 880.383,207.676C884.894,211.192 890.249,213.588 894.14,217.969C895.333,219.31 896.384,220.664 897.038,222.378C898.364,225.863 900.726,228.619 903.407,231.172C910.041,237.49 916.832,243.654 923.897,249.454C927.731,252.602 930.914,256.347 934.675,259.514C935.424,260.145 936.297,260.837 936.653,261.692C938.756,266.742 943.498,268.459 947.813,270.697C948.943,271.283 949.387,272.045 949.419,273.249C949.481,275.594 948.935,277.781 947.645,279.716C946.991,280.699 946.286,281.565 946.032,282.797C945.854,283.659 944.324,284.564 945.367,285.3C946.417,286.041 947.495,287.084 949.213,286.819C953.738,286.123 957.663,284.209 961.263,281.503C963.394,279.901 965.459,278.255 968.235,277.795C970.712,277.386 972.321,278.145 972.82,280.61C973.419,283.572 973.348,286.605 971.648,289.212C967.501,295.575 963.374,302.046 957.804,307.226C954.759,310.058 953.251,313.698 950.855,316.829C949.833,318.166 948.768,319.454 947.582,320.647C945.172,323.069 942.286,323.175 939.818,320.749C937.433,318.404 934.935,316.13 933.461,313.018C933.168,312.4 932.771,311.808 932.323,311.29C930.59,309.29 928.853,307.428 928.751,304.437C928.698,302.898 927.603,301.438 926.274,300.25C925.038,299.144 923.258,298.2 923.579,295.987C923.665,295.388 923.114,295.258 922.56,295.246C919.06,295.174 916.989,293.282 915.843,290.081C915.076,287.94 913.043,286.786 911.198,286.286C907.613,285.314 905.185,283.012 902.823,280.484C901.004,278.538 899.365,276.419 897.489,274.532C895.338,272.368 894.161,269.652 892.908,266.986C892.438,265.986 891.946,265.051 891.213,264.246C885.884,258.394 880.224,252.988 872.947,249.504C868.378,247.316 863.56,245.873 858.724,244.594C852.341,242.905 846.751,239.819 841.318,236.225C838.111,234.103 834.315,233.17 830.736,231.865C821.207,228.388 811.458,225.571 801.751,222.628C799.1,221.826 796.857,221.642 794.768,223.992C793.771,225.111 792.099,225.609 790.793,226.479C784.261,230.83 779.067,236.616 773.875,242.389C772.292,244.148 770.636,245.835 769.212,247.747C765.499,252.733 762.298,257.977 759.583,263.601C758.142,266.587 757.274,270.201 754.01,272.1C753.781,272.233 753.643,272.563 753.516,272.826C750.292,279.496 745.004,284.618 740.497,290.333C737.524,294.1 734.086,297.602 732.505,302.315C732.443,302.5 732.361,302.703 732.227,302.835C730.238,304.787 728.929,306.86 729.044,309.941C729.098,311.37 727.255,312.546 725.738,313.435C722.768,315.175 719.466,316.246 716.677,318.388C714.398,320.14 712.669,322.21 711.536,324.758C710.158,327.858 708.032,330.467 706.283,333.321C705.509,334.583 704.757,335.868 704.399,337.327C704.254,337.914 704.111,338.663 703.584,338.845C703.159,338.991 701.763,339.334 701.763,339.334C701.763,339.334 700.816,341.852 700.167,343.24C698.267,347.305 694.843,349.141 690.559,349.634C687.029,350.04 683.522,350.577 680.573,352.743C678.293,354.418 676.187,356.33 673.923,358.031C668.499,362.105 662.457,363.818 655.876,361.667C651.314,360.176 650.928,358.379 650.636,352.837C650.477,349.84 651.943,347.282 653.732,345.019C656.158,341.953 659.218,339.739 662.952,338.348C668.004,336.468 673.336,335.459 678.274,333.234C679.44,332.709 680.424,331.999 680.424,331.999C680.424,331.999 679.579,331.018 678.888,330.283C676.661,327.906 676.354,326.675 678.261,324.045C681.613,319.418 684.226,314.307 687.741,309.805C689.149,308.001 689.721,305.895 689.993,303.772C690.3,301.366 691.52,299.763 693.417,298.532C699.905,294.321 703.857,288.038 707.452,281.456C708.618,279.323 710.011,277.326 711.311,275.298C713.877,271.299 717.34,267.746 718.539,262.93C719.61,258.621 722.736,255.638 726.063,253.359C729.648,250.904 731.072,247.374 732.769,243.872C733.754,241.841 734.489,239.658 735.075,237.472C735.7,235.137 736.609,233.095 738.291,231.269C740.14,229.261 740.313,226.397 741.25,223.924C742.292,221.172 742.974,218.297 744.335,215.645C745.602,213.179 744.51,210.354 745.241,207.774C745.293,207.59 745.193,207.357 745.262,207.186C746.38,204.412 747.25,201.493 748.727,198.922C749.961,196.776 750.348,196.163 748.696,194.361C747.484,193.04 747.475,191.992 748.082,190.192C748.989,187.493 751.171,184.779 748.868,181.473C748.077,180.339 748.684,178.211 748.707,176.538C748.719,175.503 748.573,174.592 747.658,173.93C743.879,171.199 744.069,167.275 744.974,163.473C745.889,159.624 745.389,156.475 742.323,153.847C741.733,153.342 741.167,152.711 740.837,152.02C739.995,150.249 738.56,149.411 736.75,148.942C733.172,148.016 730.681,145.297 727.857,143.212C725.606,141.55 723.477,141.167 720.957,141.983C718.518,142.772 716.12,143.701 713.459,143.432C712.386,143.325 711.614,144.072 711.018,144.891C707.049,150.349 701.249,153.681 696.156,157.85C692.269,161.034 687.761,163.48 684.238,166.978C680.752,170.439 677.376,174.055 673.958,177.607C671.017,180.665 668.021,183.67 665.108,186.755C661.45,190.629 658.809,194.893 658.883,200.566C658.958,206.287 652.266,212.377 650.794,212.591C649.321,212.806 647.915,212.029 647.951,212.992C647.988,213.954 646.436,215.661 644.793,215.702C644.358,215.713 644.286,216.219 644.329,216.641C644.497,218.292 643.556,219.095 642.086,219.111C640.398,219.13 638.027,219.978 637.337,217.84C635.948,213.539 633.084,209.613 634.115,204.615C634.647,202.031 635.695,199.866 637.621,198.296C639.508,196.758 641.231,194.98 643.568,193.963C645.997,192.907 647.426,190.745 648.794,188.522C652.556,182.414 656.635,176.513 660.852,170.712C662.137,168.947 663.153,167.043 664.188,165.159C666.464,161.018 669.469,157.337 671.593,153.1C672.102,152.082 673.087,151.266 673.962,150.478C674.968,149.575 675.734,148.493 675.803,147.202C675.952,144.464 677.803,142.744 679.766,141.709C684.03,139.462 686.359,135.807 688.299,131.728C689.602,128.991 691.206,126.575 693.771,124.798C697.097,122.497 700.355,120.087 703.524,117.576C706.237,115.425 708.571,112.994 708.977,109.21C709.109,107.98 710.44,107.047 711.473,106.434C713.07,105.487 714.247,104.202 715.214,102.742C716.306,101.091 717.587,100.235 719.627,100.536C720.963,100.732 721.958,100.562 722.346,98.736C722.755,96.811 724.754,96.15 726.5,95.847C729.692,95.293 731.939,93.692 733.242,90.733C733.44,90.285 733.657,89.804 733.99,89.461C740.062,83.213 737.93,76.492 735.112,69.759C734.43,68.128 733.607,66.581 733.335,64.787C733.165,63.661 732.735,62.719 731.623,61.89C728.602,59.638 728.067,56.805 729.681,53.345C730.139,52.363 729.987,51.431 729.863,50.456C729.538,47.897 729.353,45.35 730.123,42.82C731.18,39.338 732.575,36.118 736.24,34.595C737.925,33.894 738.564,31.946 740.356,31.305C741.231,30.992 741.881,30.094 742.704,29.573C743.093,29.326 743.645,29.299 744.132,29.245C746.581,28.974 748.931,28.01 751.751,28.255Z" style="fill:rgb(228,240,236);fill-rule:nonzero;"/>
        <path d="M865.432,527.583C863.716,526.32 862.507,524.901 862.629,522.519C862.708,521.013 861.348,520.058 860.306,519.12C859.644,518.524 859.1,519.073 858.873,519.669C857.89,522.25 857.247,524.969 857.578,527.693C857.692,528.627 857.79,530.121 857.79,530.121C857.79,530.121 860.362,532.863 861.938,533.707C862.172,533.832 862.402,533.971 862.615,534.129C863.592,534.855 864.532,536.021 865.881,535.2C867.233,534.378 867.291,532.845 867.374,531.428C867.559,529.718 866.711,528.526 865.432,527.583ZM903.417,604.811C901.93,607.096 900.055,608.903 897.814,610.445C896.128,611.605 894.787,613.139 893.927,615.1C893.326,616.473 892.528,617.822 891.557,618.959C886.062,625.399 881.83,632.724 876.92,639.574C875.415,641.675 874.999,644.173 874.559,646.584C874.274,648.149 874.2,649.956 875.632,651.34C876.361,652.042 876.415,653.116 876.44,654.103C876.497,656.235 876.894,658.35 876.637,660.499C876.509,661.568 876.626,662.685 877.338,663.556C878.218,664.632 878.31,665.835 878.081,667.09C877.551,669.966 876.451,672.819 877.999,675.728C878.182,676.076 878.009,676.607 878.021,677.051C878.154,682.031 877.754,687.014 878.511,691.992C878.797,693.868 878.594,695.842 877.817,697.744C876.614,700.682 878.257,703.837 881.333,704.901C882.358,705.254 883.414,705.59 883.957,706.602C885.554,709.579 887.25,712.541 887.288,716.062C887.305,717.775 887.571,719.412 888.148,721.033C888.756,722.735 889.236,724.69 888.331,726.241C888.033,726.751 886.666,726.442 886.666,726.442C886.666,726.442 887.615,731.193 887.965,732.947C888.123,733.733 888.395,734.499 888.499,735.29C888.791,737.529 887.949,738.933 885.758,739.309C882.937,739.793 880.151,740.174 877.288,740.175C872.121,740.177 866.95,740.172 861.788,740.353C855.271,740.582 848.792,740.168 842.311,739.616C839.906,739.409 837.538,738.974 835.268,738.137C833.153,737.357 832.241,735.607 832.83,733.478C833.64,730.553 835.104,728.266 838.48,727.893C839.451,727.786 840.405,727.531 841.366,727.34C844.969,726.624 848.412,725.38 851.713,723.826C853.281,723.089 855.043,722.02 855.019,719.993C854.992,717.572 854.444,715.027 852.398,713.527C849.942,711.723 849.25,708.956 848.416,706.499C847.601,704.107 847.06,701.545 846.274,699.093C842.333,686.798 839.081,674.309 835.751,661.842C835.149,659.586 834.079,657.493 832.55,655.764C830.718,653.693 830.274,651.365 830.715,648.811C831.293,645.46 831.838,642.139 830.748,638.787C830.496,638.013 830.664,637.206 830.719,636.404C830.964,632.841 833.23,629.593 832.354,625.858C832.319,625.702 832.423,625.512 832.471,625.34C833.674,621.04 833.629,616.731 832.639,612.398C832.243,610.66 832.305,608.97 833.983,607.872C835.623,606.798 837.435,607.024 839.179,608.353C840.823,609.608 842.142,611.17 843.454,612.75C843.858,613.24 844.789,614.144 844.789,614.144C844.789,614.144 845.164,613.054 845.35,612.448C846.844,607.599 848.666,602.869 850.442,598.121C850.968,596.716 850.987,595.107 851.595,593.751C853.13,590.333 854.364,586.806 855.71,583.321C856.383,581.577 856.97,579.768 858.126,578.275C860.858,574.745 862.966,570.809 865.49,567.146C866.348,565.9 867.172,564.628 868.015,563.371C868.515,562.626 868.432,562.079 867.544,561.7C866.174,561.114 865.048,560.231 864.8,558.668C864.594,557.372 864.174,556.778 862.697,557.173C861.252,557.558 860.543,556.717 860.516,555.271C860.508,554.833 860.561,554.371 860.219,554.009C857.093,554.235 857.073,554.219 856,551.046C855.971,550.961 855.946,550.875 855.929,550.788C855.717,549.613 855.011,549.083 853.841,549.293C851.179,549.773 849.002,547.842 846.43,547.828C845.792,547.825 845.421,547.153 845.059,546.64C844.12,545.31 842.996,544.22 841.468,543.544C840.187,542.977 839.179,541.924 838.895,540.618C838.503,538.815 837.315,538.074 835.887,537.224C832.739,535.351 831.839,532.884 832.63,529.276C832.839,528.322 833.094,527.356 833.123,526.388C833.132,526.039 833.526,524.706 833.526,524.706L831.523,522.764C831.523,522.764 830.342,523.045 830.079,523.12C828.712,523.503 826.08,522.292 824.267,520.628C819.147,515.93 813.501,511.87 808.103,507.511C804.027,504.219 799.409,501.601 795.292,498.352C789.769,493.994 784.05,489.903 778.355,485.796C770.563,480.179 762.497,474.935 754.278,469.951C748.341,466.349 742.797,462.14 736.729,458.75C736.195,458.451 735.739,458 735.274,457.588C733.579,456.082 733.05,454.248 733.64,452.04C734.39,449.235 735.827,446.773 737.519,444.481C739.1,442.341 740.445,442.039 742.878,443.143C751.321,446.972 759.474,451.393 767.376,456.201C774.209,460.36 780.7,465.072 787.088,469.932C796.874,477.377 806.393,485.125 815.656,493.201C818.473,495.657 821.135,498.283 824.179,500.489C827.653,503.005 830.694,506.015 833.493,509.267C834.189,510.077 834.935,510.815 834.814,512.041C834.684,513.374 834.695,514.88 834.695,514.88C834.695,514.88 836.567,516.396 837.716,517.183C838.224,517.532 839.241,518.324 839.241,518.324C839.241,518.324 840.088,517.248 840.55,516.526C841.886,514.435 841.792,510.745 840.292,508.734C839.871,508.165 839.259,507.621 839.117,506.982C838.432,503.912 836.375,501.618 834.829,499.035C833.688,497.13 832.168,495.404 831.571,493.242C831.194,491.882 830.645,490.777 829.555,489.908C825.205,486.437 825.987,478.147 830.3,475.038C832.331,473.576 833.547,471.525 834.236,469.154C834.786,467.256 835.675,465.512 836.605,463.789C837.292,462.517 838.207,461.445 839.579,460.826C841.784,459.832 843.363,458.185 844.38,456.01C844.98,454.73 845.935,453.841 847.212,453.312C848.2,452.904 850.615,451.958 850.615,451.958C850.615,451.958 850.295,450.625 850.127,449.653C850.008,448.958 850.728,448.412 851.345,448.006C851.865,447.665 852.179,447.064 851.602,446.719C850.034,445.784 850.036,442.51 850.036,442.51C850.036,442.51 848.612,441.953 848.383,441.617C847.519,440.34 847.545,439.122 848.721,438.024C849.619,437.184 850.047,436.135 850.043,434.919C850.035,431.959 850.637,429.055 851.308,426.226C852.847,419.738 857.121,415.555 863.373,413.464C870.416,411.109 877.5,411.785 884.358,414.091C888.456,415.469 891.86,418.159 893.759,422.269C894.579,424.041 895.097,425.951 895.906,427.728C896.515,429.072 896.959,432.061 896.959,432.061C896.959,432.061 898.021,432.066 898.176,432.204C899.279,433.194 899.877,434.08 898.04,435.005C897.739,435.157 896.867,435.118 896.493,435.436C895.976,435.876 896.006,436.451 896.006,436.451C896.714,436.488 897.62,436.537 898.229,436.607C899.534,436.753 900.348,436.917 901.381,437.183C902.556,437.487 902.904,438.279 902.588,439.429C902.335,440.357 901.764,440.977 900.917,441.392C899.475,442.099 898.022,442.761 896.428,443.067C895.935,443.16 894.821,443.29 894.821,443.29C894.821,443.29 894.551,444.146 894.435,444.607C893.958,446.503 893.397,448.39 893.103,450.318C892.719,452.838 893.035,453.122 895.543,453.137C896.794,453.144 898.001,453.259 899.233,453.566C903.579,454.646 907.065,457.32 910.669,459.709C913.849,461.819 916.764,464.326 919.817,466.63C921.216,467.687 922.21,468.924 922.572,470.723C922.831,472.012 923.229,473.478 924.505,474.11C926.706,475.2 927.706,477.055 928.476,479.213C928.799,480.118 929.431,480.912 929.926,481.755C931.596,484.603 933.491,487.492 933.932,490.722C934.364,493.876 936.01,495.868 938.159,497.768C938.625,498.181 939.108,498.578 939.557,499.007C941.476,500.835 942.837,502.98 943.255,505.642C943.567,507.627 944.236,509.407 945.78,510.815C946.283,511.274 946.575,511.99 946.889,512.624C948.987,516.858 951.331,520.953 953.735,525.016C954.241,525.871 954.852,526.6 955.619,527.241C960.14,531.019 963.23,535.6 963.696,541.669C963.955,545.044 964.522,548.373 965.272,551.68C966.036,555.045 966.244,558.633 964.571,561.608C962.405,565.458 961.417,569.496 960.833,573.746C959.79,581.353 956.955,588.528 955.422,596.017C955.352,596.361 955.166,596.68 955.021,597.006C952,603.835 950.177,610.951 949.929,618.437C949.897,619.419 949.958,620.434 949.348,621.27C948.179,622.875 948.404,624.516 948.771,626.356C949.221,628.6 950.663,630.757 950.059,633.083C949.445,635.453 948.44,637.689 949.86,640.099C950.045,640.415 949.931,641.008 949.781,641.407C948.456,644.897 949.206,648.48 949.509,651.969C950.147,659.27 949.905,666.559 949.74,673.855C949.69,675.98 949.389,678.09 949.003,680.207C947.583,687.983 945.616,695.696 946.043,703.715C946.186,706.381 946.081,709.06 946.057,711.734C946.045,713.077 946.255,714.376 946.493,715.699C947.322,720.315 946.688,724.924 946.151,729.513C945.981,730.951 945.057,731.907 943.459,732.009C942.399,732.077 940.876,731.722 940.876,731.722C940.876,731.722 940.771,733.502 940.785,734.778C940.81,737.566 940.407,740.225 939.677,742.912C939.298,744.31 938.615,744.836 937.373,745.041C934.292,745.549 931.195,745.942 928.077,745.995C921.595,746.108 915.407,744.346 909.167,742.92C907.915,742.634 907.214,741.84 906.688,740.718C905.171,737.486 905.473,735.324 907.976,732.701C909.453,731.155 911.014,729.691 912.473,728.128C912.959,727.609 913.47,726.976 913.47,726.976C913.47,726.976 912.454,726.365 911.983,726.253C910.515,725.908 910.28,724.804 910.663,723.54C911.875,719.547 911.688,715.432 911.745,711.344C911.814,706.177 912.277,700.952 911.674,695.859C911.07,690.739 911.713,685.524 910.34,680.491C910.856,671.053 909.368,661.667 909.604,652.242C909.67,649.603 909.203,647.031 908.417,644.638C906.98,640.26 906.586,635.802 906.522,631.289C906.485,628.594 906.051,626.011 905.538,623.379C904.615,618.652 904.536,613.88 905.645,609.113C906.162,606.892 906.452,604.184 907.611,601.065C906.052,601.897 904.072,603.805 903.417,604.811Z" style="fill:rgb(228,240,236);fill-rule:nonzero;"/>
    </g>
</svg>
